<svg xmlns="http://www.w3.org/2000/svg" xmlns:xlink="http://www.w3.org/1999/xlink" xmlns:lucid="lucid" width="2347.52" height="1360"><g transform="translate(0 0)" lucid:page-tab-id="HWEp-vi-RSFO"><path d="M0 0h2347.52v1360H0z" fill="#fff"/><path d="M160 160h1296l224 224v896H160z" stroke="#333" stroke-width="2" fill="#fff"/><path d="M1456 160.95V384h223.05" stroke="#333" stroke-width="2" fill="#fff"/><use xlink:href="#a" transform="matrix(1,0,0,1,165,165) translate(0 14.4)"/><use xlink:href="#b" transform="matrix(1,0,0,1,165,165) translate(79.9 14.4)"/><path d="M720 700h400l100 100v400H720z" stroke="#333" stroke-width="2" fill="#fff"/><path d="M1120 700.95V800h99.05" stroke="#333" stroke-width="2" fill="#fff"/><use xlink:href="#c" transform="matrix(1,0,0,1,725,705) translate(0 14.4)"/><use xlink:href="#b" transform="matrix(1,0,0,1,725,705) translate(61.900000000000006 14.4)"/><path d="M340 200h520l80 80v320H340z" stroke="#333" stroke-width="2" fill="#fff"/><path d="M860 200.95V280h79.05" stroke="#333" stroke-width="2" fill="#fff"/><use xlink:href="#d" transform="matrix(1,0,0,1,345,205) translate(0 14.4)"/><use xlink:href="#b" transform="matrix(1,0,0,1,345,205) translate(79.9 14.4)"/><path d="M1943.27 160h300v219h-300z" stroke="#333" stroke-width="2" fill="#fff"/><path d="M1943.27 197.6h300m-300 79.7h300" stroke="#333" stroke-width="2" fill="none"/><use xlink:href="#e" transform="matrix(1,0,0,1,1951.2659889299102,168) translate(118.57499999999999 14.6)"/><use xlink:href="#f" transform="matrix(1,0,0,1,1955.2659889299102,205.6) translate(0 24.799999999999997)"/><use xlink:href="#g" transform="matrix(1,0,0,1,1955.2659889299102,205.6) translate(98.9 24.799999999999997)"/><use xlink:href="#h" transform="matrix(1,0,0,1,1955.2659889299102,205.6) translate(0 46.4)"/><use xlink:href="#i" transform="matrix(1,0,0,1,1955.2659889299102,285.3) translate(0 25)"/><use xlink:href="#j" transform="matrix(1,0,0,1,1955.2659889299102,285.3) translate(35.849999999999994 25)"/><use xlink:href="#k" transform="matrix(1,0,0,1,1955.2659889299102,285.3) translate(50.849999999999994 25)"/><use xlink:href="#l" transform="matrix(1,0,0,1,1955.2659889299102,285.3) translate(76.8 25)"/><use xlink:href="#m" transform="matrix(1,0,0,1,1955.2659889299102,285.3) translate(140.7 25)"/><use xlink:href="#n" transform="matrix(1,0,0,1,1955.2659889299102,285.3) translate(0 46.6)"/><use xlink:href="#o" transform="matrix(1,0,0,1,1955.2659889299102,285.3) translate(0 68.2)"/><path d="M-140 28a8 8 0 0 1 8-8h836.75a8 8 0 0 1 8 8v25.16a8 8 0 0 1-8 8H-132a8 8 0 0 1-8-8z" stroke="#000" stroke-opacity="0" stroke-width="2" fill="#fff" fill-opacity="0"/><use xlink:href="#p" transform="matrix(1,0,0,1,-136,24) translate(244.25753086419752 23.657777777777778)"/><use xlink:href="#q" transform="matrix(1,0,0,1,-136,24) translate(369.32296296296295 23.657777777777778)"/><use xlink:href="#r" transform="matrix(1,0,0,1,-136,24) translate(432.6933333333333 23.657777777777778)"/><use xlink:href="#s" transform="matrix(1,0,0,1,-136,24) translate(505.5328395061728 23.657777777777778)"/><path d="M136.48 59.8h309.36M136.5 59.8h-1.02M445.82 59.8h1.02" stroke="#a9afb8" stroke-width="2" fill="none"/><path d="M-140 69.16a8 8 0 0 1 8-8h837.7a8 8 0 0 1 8 8V72a8 8 0 0 1-8 8H-132a8 8 0 0 1-8-8z" stroke="#000" stroke-opacity="0" stroke-width="2" fill="#fff" fill-opacity="0"/><use xlink:href="#t" transform="matrix(1,0,0,1,-135.99999999999977,65.15522395689881) translate(308.4435390946502 14.917037037037037)"/><use xlink:href="#u" transform="matrix(1,0,0,1,-135.99999999999977,65.15522395689881) translate(340.69323045267487 14.917037037037037)"/><use xlink:href="#v" transform="matrix(1,0,0,1,-135.99999999999977,65.15522395689881) translate(393.2954938271605 14.917037037037037)"/><use xlink:href="#w" transform="matrix(1,0,0,1,-135.99999999999977,65.15522395689881) translate(405.7449794238683 14.917037037037037)"/><use xlink:href="#x" transform="matrix(1,0,0,1,-135.99999999999977,65.15522395689881) translate(484.6908641975308 14.917037037037037)"/><use xlink:href="#y" transform="matrix(1,0,0,1,-135.99999999999977,65.15522395689881) translate(510.1846913580247 14.917037037037037)"/><path d="M1320 580h300v283h-300z" stroke="#333" stroke-width="2" fill="#fff"/><path d="M1320 639.2h300m-300 166.1h300" stroke="#333" stroke-width="2" fill="none"/><use xlink:href="#z" transform="matrix(1,0,0,1,1328,588) translate(51.67499999999998 14.799999999999999)"/><use xlink:href="#A" transform="matrix(1,0,0,1,1328,588) translate(148.52499999999998 14.799999999999999)"/><use xlink:href="#B" transform="matrix(1,0,0,1,1328,588) translate(3.3499999999999943 36.4)"/><use xlink:href="#C" transform="matrix(1,0,0,1,1328,588) translate(114.05 36.4)"/><use xlink:href="#D" transform="matrix(1,0,0,1,1328,588) translate(203.9 36.4)"/><use xlink:href="#E" transform="matrix(1,0,0,1,1332,647.2) translate(0 25.1)"/><use xlink:href="#F" transform="matrix(1,0,0,1,1332,647.2) translate(0 46.7)"/><use xlink:href="#G" transform="matrix(1,0,0,1,1332,647.2) translate(0 68.30000000000001)"/><use xlink:href="#H" transform="matrix(1,0,0,1,1332,647.2) translate(0 89.90000000000002)"/><use xlink:href="#I" transform="matrix(1,0,0,1,1332,647.2) translate(0 111.50000000000001)"/><use xlink:href="#J" transform="matrix(1,0,0,1,1332,647.2) translate(0 133.1)"/><use xlink:href="#K" transform="matrix(1,0,0,1,1332,813.3000000000001) translate(0 25.1)"/><use xlink:href="#j" transform="matrix(1,0,0,1,1332,813.3000000000001) translate(117.80000000000001 25.1)"/><use xlink:href="#L" transform="matrix(1,0,0,1,1332,813.3000000000001) translate(132.8 25.1)"/><path d="M1736.58 722H1621.9v-1h114.68zm45.4-10.56l-.17.73h-1.02l.2-.85.06-165.83h1zM1941.8 270l-149.96.15-1.74.4-1.67.7-1.53.95-1.37 1.17-1.17 1.37-.94 1.54-.7 1.67-.42 1.75-.15 1.82-.08 245.3h-1l.08-245.34.16-1.94.44-1.9.75-1.82 1.02-1.67 1.27-1.5 1.48-1.26 1.68-1.04 1.8-.75 1.94-.45 150.07-.15z" stroke="#333" stroke-width=".05" fill="#333"/><path d="M1639.45 711.75l-16.5 9.75 16.5 9.75-.5.86-17.95-10.6 17.94-10.6z" stroke="#333" stroke-width=".05" fill="#333"/><path d="M1942.27 270h-.52v-1h.52z" fill="#333"/><path d="M1942.3 270.02h-.57v-1.04h.56zm-.52-1v.96h.46v-.96z" stroke="#333" stroke-width=".05" fill="#333"/><use xlink:href="#M" transform="matrix(1,0,0,1,1750.1113895266835,526.8189509331372) translate(0 12.444444444444446)"/><path d="M800 780h300v197H800z" stroke="#333" stroke-width="2" fill="#fff"/><path d="M800 817.6h300m-300 58.1h300" stroke="#333" stroke-width="2" fill="none"/><use xlink:href="#z" transform="matrix(1,0,0,1,808,788) translate(9.799999999999983 14.6)"/><use xlink:href="#N" transform="matrix(1,0,0,1,808,788) translate(106.64999999999999 14.6)"/><use xlink:href="#O" transform="matrix(1,0,0,1,808,788) translate(191.5 14.6)"/><use xlink:href="#P" transform="matrix(1,0,0,1,812,825.6) translate(0 25.1)"/><use xlink:href="#Q" transform="matrix(1,0,0,1,812,825.6) translate(52.9 25.1)"/><use xlink:href="#j" transform="matrix(1,0,0,1,812,825.6) translate(194.8 25.1)"/><use xlink:href="#R" transform="matrix(1,0,0,1,812,825.6) translate(209.8 25.1)"/><use xlink:href="#S" transform="matrix(1,0,0,1,812,883.7) translate(0 25)"/><use xlink:href="#j" transform="matrix(1,0,0,1,812,883.7) translate(97.7 25)"/><use xlink:href="#k" transform="matrix(1,0,0,1,812,883.7) translate(112.7 25)"/><use xlink:href="#l" transform="matrix(1,0,0,1,812,883.7) translate(138.65 25)"/><use xlink:href="#m" transform="matrix(1,0,0,1,812,883.7) translate(202.55 25)"/><use xlink:href="#T" transform="matrix(1,0,0,1,812,883.7) translate(0 46.6)"/><use xlink:href="#U" transform="matrix(1,0,0,1,812,883.7) translate(127.65000000000002 46.6)"/><use xlink:href="#V" transform="matrix(1,0,0,1,812,883.7) translate(0 68.2)"/><use xlink:href="#W" transform="matrix(1,0,0,1,812,883.7) translate(94.85000000000001 68.2)"/><path d="M1318.1 721.5H1272a12 12 0 0 0-12 12v133a12 12 0 0 1-12 12h-146.5" stroke="#333" fill="none"/><path d="M1300.8 731.68l17.22-10.18-17.22-10.18" stroke="#333" fill="none"/><path d="M1101.5 879h-.5v-1h.5z" stroke="#333" stroke-width=".05" fill="#333"/><use xlink:href="#M" transform="matrix(1,0,0,1,1251.896788533277,879.2274553753386) translate(0 12.444444444444446)"/><path d="M793.84 1060h312.32v98H793.84z" stroke="#333" stroke-width="2" fill="#fff"/><path d="M793.84 1119.2h312.32" stroke="#333" stroke-width="2" fill="none"/><use xlink:href="#X" transform="matrix(1,0,0,1,801.8427943483314,1068) translate(40.67499999999998 14.799999999999999)"/><use xlink:href="#Y" transform="matrix(1,0,0,1,801.8427943483314,1068) translate(176.475 14.799999999999999)"/><use xlink:href="#Z" transform="matrix(1,0,0,1,801.8427943483314,1068) translate(65.67500000000001 36.4)"/><use xlink:href="#aa" transform="matrix(1,0,0,1,805.8427943483314,1127.2) translate(0 15.1)"/><path d="M950 978.9v8.85m0 8.85v17.68m0 8.85v17.68m0 8.86v8.84M960.18 996.2L950 978.98l-10.18 17.22" stroke="#333" fill="none"/><path d="M950.5 1059h-1v-.5h1z" stroke="#333" stroke-width=".05" fill="#333"/><g><use xlink:href="#ab" transform="matrix(1,0,0,1,958,1009.1666666666666) translate(0 12.444444444444446)"/></g><path d="M1943.27 609h300v240h-300z" stroke="#333" stroke-width="2" fill="#fff"/><path d="M1943.27 646.6h300m-300 144.5h300" stroke="#333" stroke-width="2" fill="none"/><g><use xlink:href="#z" transform="matrix(1,0,0,1,1951.2659889299102,617) translate(69.1 14.6)"/><use xlink:href="#ac" transform="matrix(1,0,0,1,1951.2659889299102,617) translate(165.95 14.6)"/></g><g><use xlink:href="#ad" transform="matrix(1,0,0,1,1955.2659889299102,654.6) translate(0 24.89999999999999)"/><use xlink:href="#g" transform="matrix(1,0,0,1,1955.2659889299102,654.6) translate(80.9 24.89999999999999)"/><use xlink:href="#ae" transform="matrix(1,0,0,1,1955.2659889299102,654.6) translate(0 46.49999999999999)"/><use xlink:href="#j" transform="matrix(1,0,0,1,1955.2659889299102,654.6) translate(38.95 46.49999999999999)"/><use xlink:href="#af" transform="matrix(1,0,0,1,1955.2659889299102,654.6) translate(53.95 46.49999999999999)"/><use xlink:href="#ag" transform="matrix(1,0,0,1,1955.2659889299102,654.6) translate(0 68.1)"/><use xlink:href="#ah" transform="matrix(1,0,0,1,1955.2659889299102,654.6) translate(0 89.70000000000002)"/><use xlink:href="#j" transform="matrix(1,0,0,1,1955.2659889299102,654.6) translate(129.85000000000002 89.70000000000002)"/><use xlink:href="#af" transform="matrix(1,0,0,1,1955.2659889299102,654.6) translate(144.85000000000002 89.70000000000002)"/><use xlink:href="#ai" transform="matrix(1,0,0,1,1955.2659889299102,654.6) translate(0 111.30000000000001)"/><use xlink:href="#j" transform="matrix(1,0,0,1,1955.2659889299102,654.6) translate(91.85000000000001 111.30000000000001)"/><use xlink:href="#L" transform="matrix(1,0,0,1,1955.2659889299102,654.6) translate(106.85000000000001 111.30000000000001)"/></g><g><use xlink:href="#S" transform="matrix(1,0,0,1,1955.2659889299102,799.1) translate(0 25.1)"/><use xlink:href="#j" transform="matrix(1,0,0,1,1955.2659889299102,799.1) translate(97.7 25.1)"/><use xlink:href="#k" transform="matrix(1,0,0,1,1955.2659889299102,799.1) translate(112.7 25.1)"/><use xlink:href="#l" transform="matrix(1,0,0,1,1955.2659889299102,799.1) translate(138.65 25.1)"/><use xlink:href="#aj" transform="matrix(1,0,0,1,1955.2659889299102,799.1) translate(202.55 25.1)"/></g><path d="M1943.27 1079h300v154h-300z" stroke="#333" stroke-width="2" fill="#fff"/><path d="M1943.27 1116.6h300m-300 58.1h300" stroke="#333" stroke-width="2" fill="none"/><g><use xlink:href="#ak" transform="matrix(1,0,0,1,1951.2659889299102,1087) translate(56.17499999999998 14.6)"/><use xlink:href="#al" transform="matrix(1,0,0,1,1951.2659889299102,1087) translate(151.075 14.6)"/></g><g><use xlink:href="#ai" transform="matrix(1,0,0,1,1955.2659889299102,1124.6) translate(0 25.1)"/><use xlink:href="#j" transform="matrix(1,0,0,1,1955.2659889299102,1124.6) translate(91.85000000000001 25.1)"/><use xlink:href="#L" transform="matrix(1,0,0,1,1955.2659889299102,1124.6) translate(106.85000000000001 25.1)"/></g><g><use xlink:href="#am" transform="matrix(1,0,0,1,1955.2659889299102,1182.6999999999998) translate(0 25.1)"/></g><path d="M2093.77 1077.1h-1V985.3h1zm0-110.45h-1V850.5h1z" stroke="#333" stroke-width=".05" fill="#333"/><path d="M2103.88 1060.06l-10.6 17.94-10.63-17.94.87-.5 9.75 16.48 9.75-16.5z" stroke="#333" stroke-width=".05" fill="#333"/><path d="M2093.77 850.5h-1v-.5h1z" fill="#333"/><path d="M2093.8 850.54h-1.06v-.56h1.05zm-1-.5v.45h.94V850z" stroke="#333" stroke-width=".05" fill="#333"/><g><use xlink:href="#an" transform="matrix(1,0,0,1,2080.7351247323795,966.6531253308863) translate(0 12.444444444444446)"/></g><path d="M1846.92 721.05l.64.16.62.26.57.35.5.44.44.5.34.58.25.62.15.64.1 1.18.1.5.2.46.27.44.33.4.4.32.43.26.47.2.47.1 88.55.06v1l-88.67-.05-.66-.16-.62-.26-.57-.35-.5-.44-.44-.5-.34-.58-.25-.62-.15-.64-.1-1.18-.1-.5-.2-.46-.27-.44-.33-.4-.4-.32-.43-.26-.47-.2-.5-.12-.52-.04h-46.6v-1h46.64zm-225 .95v-1h114.66v1z" stroke="#333" stroke-width=".05" fill="#333"/><path d="M1639.45 711.75l-16.5 9.75 16.5 9.75-.5.86-17.95-10.6 17.94-10.6z" stroke="#333" stroke-width=".05" fill="#333"/><path d="M1942.27 729.5h-.52v-1h.52z" fill="#333"/><path d="M1942.3 729.52h-.57v-1.04h.56zm-.52-1v.96h.46v-.96z" stroke="#333" stroke-width=".05" fill="#333"/><g><use xlink:href="#M" transform="matrix(1,0,0,1,1736.577442436729,712.1666666666666) translate(0 12.444444444444446)"/></g><path d="M400 360h360v199H400z" stroke="#333" stroke-width="2" fill="#fff"/><path d="M400 397.6h360M400 499.9h360" stroke="#333" stroke-width="2" fill="none"/><g><use xlink:href="#ao" transform="matrix(1,0,0,1,408,368) translate(123.525 14.6)"/></g><g><use xlink:href="#ap" transform="matrix(1,0,0,1,412,405.6) translate(0 25.5)"/><use xlink:href="#aq" transform="matrix(1,0,0,1,412,405.6) translate(59.95 25.5)"/><use xlink:href="#ar" transform="matrix(1,0,0,1,412,405.6) translate(74.95 25.5)"/><use xlink:href="#as" transform="matrix(1,0,0,1,412,405.6) translate(121.9 25.5)"/><use xlink:href="#at" transform="matrix(1,0,0,1,412,405.6) translate(193.85000000000002 25.5)"/><use xlink:href="#au" transform="matrix(1,0,0,1,412,405.6) translate(218.85000000000002 25.5)"/><use xlink:href="#av" transform="matrix(1,0,0,1,412,405.6) translate(0 47.1)"/><use xlink:href="#aw" transform="matrix(1,0,0,1,412,405.6) translate(156.75 47.1)"/><use xlink:href="#ax" transform="matrix(1,0,0,1,412,405.6) translate(0 68.7)"/><use xlink:href="#ay" transform="matrix(1,0,0,1,412,405.6) translate(77.9 68.7)"/><use xlink:href="#aq" transform="matrix(1,0,0,1,412,405.6) translate(156.75 68.7)"/><use xlink:href="#az" transform="matrix(1,0,0,1,412,405.6) translate(171.75 68.7)"/></g><g><use xlink:href="#aA" transform="matrix(1,0,0,1,412,507.90000000000003) translate(0 25.6)"/><use xlink:href="#aq" transform="matrix(1,0,0,1,412,507.90000000000003) translate(39.8 25.6)"/><use xlink:href="#aB" transform="matrix(1,0,0,1,412,507.90000000000003) translate(54.8 25.6)"/></g><path d="M220 840h340v264H220z" stroke="#333" stroke-width="2" fill="#fff"/><path d="M220 877.6h340m-340 145.5h340" stroke="#333" stroke-width="2" fill="none"/><g><use xlink:href="#aC" transform="matrix(1,0,0,1,228,848) translate(85.65 14.6)"/></g><g><use xlink:href="#aD" transform="matrix(1,0,0,1,232,885.6) translate(0 25.39999999999999)"/><use xlink:href="#aE" transform="matrix(1,0,0,1,232,885.6) translate(0 46.99999999999999)"/><use xlink:href="#aF" transform="matrix(1,0,0,1,232,885.6) translate(0 68.6)"/><use xlink:href="#aG" transform="matrix(1,0,0,1,232,885.6) translate(0 90.20000000000002)"/><use xlink:href="#aH" transform="matrix(1,0,0,1,232,885.6) translate(0 111.80000000000001)"/></g><g><use xlink:href="#aI" transform="matrix(1,0,0,1,232,1031.1) translate(0 25.299999999999997)"/><use xlink:href="#aJ" transform="matrix(1,0,0,1,232,1031.1) translate(0 46.9)"/></g><path d="M418.3 670.63l-18.12.02-1.73.4-1.67.7-1.54.95-1.37 1.17-1.17 1.37-.95 1.54-.7 1.67-.4 1.75-.15 1.82V838.1h-1V681.97l.15-1.94.46-1.9.76-1.82 1.03-1.67 1.26-1.5 1.5-1.26 1.66-1.04 1.82-.75 1.92-.45 18.25-.02zM580.5 560.5l-.15 99.44-.46 1.92-.76 1.82-1.03 1.67-1.26 1.5-1.5 1.26-1.66 1.04-1.82.75-1.9.45-1.94.15-124.65.1v-1l124.6-.1 1.83-.14 1.75-.42 1.67-.7 1.54-.94 1.37-1.17 1.17-1.37.95-1.54.7-1.67.4-1.73.15-99.32z" stroke="#333" stroke-width=".05" fill="#333"/><path d="M400.6 821.06L390 839l-10.6-17.94.85-.5 9.75 16.48 9.75-16.5z" stroke="#333" stroke-width=".05" fill="#333"/><path d="M580.5 560.5h-1v-.5h1z" fill="#333"/><path d="M580.52 560.54h-1.04v-.56h1.04zm-1-.5v.45h.96V560z" stroke="#333" stroke-width=".05" fill="#333"/><g><use xlink:href="#an" transform="matrix(1,0,0,1,418.3127800414208,660.6666666666666) translate(0 12.444444444444446)"/></g><path d="M761.5 459.5H808a12 12 0 0 0 12-12V282a12 12 0 0 0-12-12H592a12 12 0 0 0-12 12v60.62" stroke="#333" fill="none"/><path d="M761.5 460h-.5v-1h.5z" stroke="#333" stroke-width=".05" fill="#333"/><path d="M580 357.38l-4.64-14.26h9.28z" stroke="#333" fill="#333"/><path d="M570.75 972.5h-8.84v-1h8.85zm25.84 0h-17v-1h17zm83.78-22.52l-.03 11.96-.17.73h-1.03l.2-.85.03-11.84zm.07-35.7l-.05 23.8h-1l.05-23.8zm18.7-35.14h-8.97l-1.73.42-1.67.7-1.54.94-1.37 1.17-1.17 1.37-.95 1.54-.7 1.67-.4 1.75-.15 1.82-.02 11.88h-1l.02-11.92.15-1.94.46-1.9.76-1.82 1.03-1.67 1.26-1.5 1.5-1.26 1.66-1.04 1.82-.75 1.92-.45h9.1zm27.1-.04l-18.06.02-.02-1 18.07-.02zm27.1-.04l-18.07.03v-1l18.06-.04zm27.1-.04l-18.08.03v-1l18.07-.03zm18.05-.02h-9.03v-1h9.03z" stroke="#333" stroke-width=".05" fill="#333"/><path d="M579.45 962.25l-16.5 9.75 16.5 9.75-.5.86L561 972l17.94-10.6z" stroke="#333" stroke-width=".05" fill="#333"/><path d="M799 879h-.5v-1h.5z" fill="#333"/><path d="M799.02 879.02h-.56V878h.56zm-.5-1v.96h.46V878z" stroke="#333" stroke-width=".05" fill="#333"/><g><use xlink:href="#aK" transform="matrix(1,0,0,1,596.5944588220405,962.6666666666666) translate(0 12.444444444444446)"/><use xlink:href="#aL" transform="matrix(1,0,0,1,596.5944588220405,962.6666666666666) translate(58.67901234567901 12.444444444444446)"/><use xlink:href="#aM" transform="matrix(1,0,0,1,596.5944588220405,962.6666666666666) translate(73.37037037037038 12.444444444444446)"/></g><defs><path fill="#333" d="M240 0l2-218c-23 76-54 145-80 218h-23L58-218 59 0H30v-248h44l77 211c21-75 51-140 76-211h43V0h-30" id="aN"/><path fill="#333" d="M100-194c63 0 86 42 84 106H49c0 40 14 67 53 68 26 1 43-12 49-29l28 8c-11 28-37 45-77 45C44 4 14-33 15-96c1-61 26-98 85-98zm52 81c6-60-76-77-97-28-3 7-6 17-6 28h103" id="aO"/><path fill="#333" d="M210-169c-67 3-38 105-44 169h-31v-121c0-29-5-50-35-48C34-165 62-65 56 0H25l-1-190h30c1 10-1 24 2 32 10-44 99-50 107 0 11-21 27-35 58-36 85-2 47 119 55 194h-31v-121c0-29-5-49-35-48" id="aP"/><path fill="#333" d="M117-194c89-4 53 116 60 194h-32v-121c0-31-8-49-39-48C34-167 62-67 57 0H25l-1-190h30c1 10-1 24 2 32 11-22 29-35 61-36" id="aQ"/><path fill="#333" d="M59-47c-2 24 18 29 38 22v24C64 9 27 4 27-40v-127H5v-23h24l9-43h21v43h35v23H59v120" id="aR"/><path fill="#333" d="M100-194c62-1 85 37 85 99 1 63-27 99-86 99S16-35 15-95c0-66 28-99 85-99zM99-20c44 1 53-31 53-75 0-43-8-75-51-75s-53 32-53 75 10 74 51 75" id="aS"/><g id="a"><use transform="matrix(0.05,0,0,0.05,0,0)" xlink:href="#aN"/><use transform="matrix(0.05,0,0,0.05,14.950000000000001,0)" xlink:href="#aO"/><use transform="matrix(0.05,0,0,0.05,24.950000000000003,0)" xlink:href="#aP"/><use transform="matrix(0.05,0,0,0.05,39.900000000000006,0)" xlink:href="#aO"/><use transform="matrix(0.05,0,0,0.05,49.900000000000006,0)" xlink:href="#aQ"/><use transform="matrix(0.05,0,0,0.05,59.900000000000006,0)" xlink:href="#aR"/><use transform="matrix(0.05,0,0,0.05,64.9,0)" xlink:href="#aS"/></g><path fill="#333" d="M30-248c87 1 191-15 191 75 0 78-77 80-158 76V0H30v-248zm33 125c57 0 124 11 124-50 0-59-68-47-124-48v98" id="aT"/><path fill="#333" d="M141-36C126-15 110 5 73 4 37 3 15-17 15-53c-1-64 63-63 125-63 3-35-9-54-41-54-24 1-41 7-42 31l-33-3c5-37 33-52 76-52 45 0 72 20 72 64v82c-1 20 7 32 28 27v20c-31 9-61-2-59-35zM48-53c0 20 12 33 32 33 41-3 63-29 60-74-43 2-92-5-92 41" id="aU"/><path fill="#333" d="M114-163C36-179 61-72 57 0H25l-1-190h30c1 12-1 29 2 39 6-27 23-49 58-41v29" id="aV"/><g id="b"><use transform="matrix(0.05,0,0,0.05,0,0)" xlink:href="#aT"/><use transform="matrix(0.05,0,0,0.05,12,0)" xlink:href="#aU"/><use transform="matrix(0.05,0,0,0.05,22,0)" xlink:href="#aR"/><use transform="matrix(0.05,0,0,0.05,27,0)" xlink:href="#aR"/><use transform="matrix(0.05,0,0,0.05,32,0)" xlink:href="#aO"/><use transform="matrix(0.05,0,0,0.05,42,0)" xlink:href="#aV"/><use transform="matrix(0.05,0,0,0.05,47.95,0)" xlink:href="#aQ"/></g><path fill="#333" d="M33 0v-248h34V0H33" id="aW"/><g id="c"><use transform="matrix(0.05,0,0,0.05,0,0)" xlink:href="#aW"/><use transform="matrix(0.05,0,0,0.05,5,0)" xlink:href="#aR"/><use transform="matrix(0.05,0,0,0.05,10,0)" xlink:href="#aO"/><use transform="matrix(0.05,0,0,0.05,20,0)" xlink:href="#aV"/><use transform="matrix(0.05,0,0,0.05,25.950000000000003,0)" xlink:href="#aU"/><use transform="matrix(0.05,0,0,0.05,35.95,0)" xlink:href="#aR"/><use transform="matrix(0.05,0,0,0.05,40.95,0)" xlink:href="#aS"/><use transform="matrix(0.05,0,0,0.05,50.95,0)" xlink:href="#aV"/></g><path fill="#333" d="M185-189c-5-48-123-54-124 2 14 75 158 14 163 119 3 78-121 87-175 55-17-10-28-26-33-46l33-7c5 56 141 63 141-1 0-78-155-14-162-118-5-82 145-84 179-34 5 7 8 16 11 25" id="aX"/><path fill="#333" d="M24-231v-30h32v30H24zM24 0v-190h32V0H24" id="aY"/><path fill="#333" d="M177-190C167-65 218 103 67 71c-23-6-38-20-44-43l32-5c15 47 100 32 89-28v-30C133-14 115 1 83 1 29 1 15-40 15-95c0-56 16-97 71-98 29-1 48 16 59 35 1-10 0-23 2-32h30zM94-22c36 0 50-32 50-73 0-42-14-75-50-75-39 0-46 34-46 75s6 73 46 73" id="aZ"/><path fill="#333" d="M24 0v-261h32V0H24" id="ba"/><g id="d"><use transform="matrix(0.05,0,0,0.05,0,0)" xlink:href="#aX"/><use transform="matrix(0.05,0,0,0.05,12,0)" xlink:href="#aY"/><use transform="matrix(0.05,0,0,0.05,15.949999999999998,0)" xlink:href="#aQ"/><use transform="matrix(0.05,0,0,0.05,25.950000000000003,0)" xlink:href="#aZ"/><use transform="matrix(0.05,0,0,0.05,35.95,0)" xlink:href="#ba"/><use transform="matrix(0.05,0,0,0.05,39.900000000000006,0)" xlink:href="#aO"/><use transform="matrix(0.05,0,0,0.05,49.900000000000006,0)" xlink:href="#aR"/><use transform="matrix(0.05,0,0,0.05,54.900000000000006,0)" xlink:href="#aS"/><use transform="matrix(0.05,0,0,0.05,64.9,0)" xlink:href="#aQ"/></g><path fill="#333" d="M230 0l2-204L168 0h-37L68-204 70 0H24v-248h70l56 185 57-185h69V0h-46" id="bb"/><path fill="#333" d="M185-48c-13 30-37 53-82 52C43 2 14-33 14-96s30-98 90-98c62 0 83 45 84 108H66c0 31 8 55 39 56 18 0 30-7 34-22zm-45-69c5-46-57-63-70-21-2 6-4 13-4 21h74" id="bc"/><path fill="#333" d="M135-194c87-1 58 113 63 194h-50c-7-57 23-157-34-157-59 0-34 97-39 157H25l-1-190h47c2 12-1 28 3 38 12-26 28-41 61-42" id="bd"/><path fill="#333" d="M85 4C-2 5 27-109 22-190h50c7 57-23 150 33 157 60-5 35-97 40-157h50l1 190h-47c-2-12 1-28-3-38-12 25-28 42-61 42" id="be"/><g id="e"><use transform="matrix(0.05,0,0,0.05,0,0)" xlink:href="#bb"/><use transform="matrix(0.05,0,0,0.05,14.950000000000001,0)" xlink:href="#bc"/><use transform="matrix(0.05,0,0,0.05,24.950000000000003,0)" xlink:href="#bd"/><use transform="matrix(0.05,0,0,0.05,35.900000000000006,0)" xlink:href="#be"/></g><path fill="#333" d="M84 4C-5 8 30-112 23-190h32v120c0 31 7 50 39 49 72-2 45-101 50-169h31l1 190h-30c-1-10 1-25-2-33-11 22-28 36-60 37" id="bf"/><path fill="#333" d="M135-143c-3-34-86-38-87 0 15 53 115 12 119 90S17 21 10-45l28-5c4 36 97 45 98 0-10-56-113-15-118-90-4-57 82-63 122-42 12 7 21 19 24 35" id="bg"/><path fill="#333" d="M33-154v-36h34v36H33zM33 0v-36h34V0H33" id="bh"/><g id="f"><use transform="matrix(0.05,0,0,0.05,0,0)" xlink:href="#aP"/><use transform="matrix(0.05,0,0,0.05,14.950000000000001,0)" xlink:href="#aO"/><use transform="matrix(0.05,0,0,0.05,24.950000000000003,0)" xlink:href="#aQ"/><use transform="matrix(0.05,0,0,0.05,34.95,0)" xlink:href="#bf"/><use transform="matrix(0.05,0,0,0.05,44.95,0)" xlink:href="#aW"/><use transform="matrix(0.05,0,0,0.05,49.95,0)" xlink:href="#aR"/><use transform="matrix(0.05,0,0,0.05,54.95,0)" xlink:href="#aO"/><use transform="matrix(0.05,0,0,0.05,64.95,0)" xlink:href="#aP"/><use transform="matrix(0.05,0,0,0.05,79.9,0)" xlink:href="#bg"/><use transform="matrix(0.05,0,0,0.05,88.9,0)" xlink:href="#bh"/></g><path fill="#333" d="M26 75v-336h71v23H56V52h41v23H26" id="bi"/><path fill="#333" d="M3 75V52h41v-290H3v-23h71V75H3" id="bj"/><g id="g"><use transform="matrix(0.05,0,0,0.05,0,0)" xlink:href="#bi"/><use transform="matrix(0.05,0,0,0.05,5,0)" xlink:href="#aN"/><use transform="matrix(0.05,0,0,0.05,19.950000000000003,0)" xlink:href="#aO"/><use transform="matrix(0.05,0,0,0.05,29.950000000000003,0)" xlink:href="#aQ"/><use transform="matrix(0.05,0,0,0.05,39.95,0)" xlink:href="#bf"/><use transform="matrix(0.05,0,0,0.05,49.95,0)" xlink:href="#aW"/><use transform="matrix(0.05,0,0,0.05,54.95,0)" xlink:href="#aR"/><use transform="matrix(0.05,0,0,0.05,59.95,0)" xlink:href="#aO"/><use transform="matrix(0.05,0,0,0.05,69.95,0)" xlink:href="#aP"/><use transform="matrix(0.05,0,0,0.05,84.9,0)" xlink:href="#bg"/><use transform="matrix(0.05,0,0,0.05,93.9,0)" xlink:href="#bj"/></g><path fill="#333" d="M87 75C49 33 22-17 22-94c0-76 28-126 65-167h31c-38 41-64 92-64 168S80 34 118 75H87" id="bk"/><path fill="#333" d="M33-261c38 41 65 92 65 168S71 34 33 75H2C39 34 66-17 66-93S39-220 2-261h31" id="bl"/><g id="i"><use transform="matrix(0.05,0,0,0.05,0,0)" xlink:href="#aY"/><use transform="matrix(0.05,0,0,0.05,3.95,0)" xlink:href="#aQ"/><use transform="matrix(0.05,0,0,0.05,13.949999999999998,0)" xlink:href="#aR"/><use transform="matrix(0.05,0,0,0.05,18.95,0)" xlink:href="#bk"/><use transform="matrix(0.05,0,0,0.05,24.9,0)" xlink:href="#bl"/></g><path fill="#333" d="M0 4l72-265h28L28 4H0" id="bm"/><g id="j"><use transform="matrix(0.05,0,0,0.05,0,0)" xlink:href="#bm"/><use transform="matrix(0.05,0,0,0.05,5,0)" xlink:href="#bm"/></g><path fill="#333" d="M101-234c-31-9-42 10-38 44h38v23H63V0H32v-167H5v-23h27c-7-52 17-82 69-68v24" id="bn"/><g id="k"><use transform="matrix(0.05,0,0,0.05,0,0)" xlink:href="#bn"/><use transform="matrix(0.05,0,0,0.05,5,0)" xlink:href="#aS"/><use transform="matrix(0.05,0,0,0.05,15,0)" xlink:href="#aV"/></g><path fill="#333" d="M85-194c31 0 48 13 60 33l-1-100h32l1 261h-30c-2-10 0-23-3-31C134-8 116 4 85 4 32 4 16-35 15-94c0-66 23-100 70-100zm9 24c-40 0-46 34-46 75 0 40 6 74 45 74 42 0 51-32 51-76 0-42-9-74-50-73" id="bo"/><path fill="#333" d="M179-190L93 31C79 59 56 82 12 73V49c39 6 53-20 64-50L1-190h34L92-34l54-156h33" id="bp"/><g id="l"><use transform="matrix(0.05,0,0,0.05,0,0)" xlink:href="#bo"/><use transform="matrix(0.05,0,0,0.05,10,0)" xlink:href="#bf"/><use transform="matrix(0.05,0,0,0.05,20,0)" xlink:href="#aP"/><use transform="matrix(0.05,0,0,0.05,34.95,0)" xlink:href="#aP"/><use transform="matrix(0.05,0,0,0.05,49.900000000000006,0)" xlink:href="#bp"/></g><g id="m"><use transform="matrix(0.05,0,0,0.05,0,0)" xlink:href="#bo"/><use transform="matrix(0.05,0,0,0.05,10,0)" xlink:href="#aU"/><use transform="matrix(0.05,0,0,0.05,20,0)" xlink:href="#aR"/><use transform="matrix(0.05,0,0,0.05,25,0)" xlink:href="#aU"/></g><path fill="#333" d="M33 0v-38h34V0H33" id="bq"/><g id="n"><use transform="matrix(0.05,0,0,0.05,0,0)" xlink:href="#aU"/><use transform="matrix(0.05,0,0,0.05,10,0)" xlink:href="#bo"/><use transform="matrix(0.05,0,0,0.05,20,0)" xlink:href="#bo"/><use transform="matrix(0.05,0,0,0.05,30,0)" xlink:href="#aN"/><use transform="matrix(0.05,0,0,0.05,44.95,0)" xlink:href="#aO"/><use transform="matrix(0.05,0,0,0.05,54.95,0)" xlink:href="#aQ"/><use transform="matrix(0.05,0,0,0.05,64.95,0)" xlink:href="#bf"/><use transform="matrix(0.05,0,0,0.05,74.95,0)" xlink:href="#aW"/><use transform="matrix(0.05,0,0,0.05,79.95,0)" xlink:href="#aR"/><use transform="matrix(0.05,0,0,0.05,84.95,0)" xlink:href="#aO"/><use transform="matrix(0.05,0,0,0.05,94.95,0)" xlink:href="#aP"/><use transform="matrix(0.05,0,0,0.05,109.9,0)" xlink:href="#bk"/><use transform="matrix(0.05,0,0,0.05,115.85000000000001,0)" xlink:href="#bq"/><use transform="matrix(0.05,0,0,0.05,120.85000000000001,0)" xlink:href="#bq"/><use transform="matrix(0.05,0,0,0.05,125.85000000000001,0)" xlink:href="#bq"/><use transform="matrix(0.05,0,0,0.05,130.85000000000002,0)" xlink:href="#bl"/></g><path fill="#333" d="M115-194c55 1 70 41 70 98S169 2 115 4C84 4 66-9 55-30l1 105H24l-1-265h31l2 30c10-21 28-34 59-34zm-8 174c40 0 45-34 45-75s-6-73-45-74c-42 0-51 32-51 76 0 43 10 73 51 73" id="br"/><g id="o"><use transform="matrix(0.05,0,0,0.05,0,0)" xlink:href="#br"/><use transform="matrix(0.05,0,0,0.05,10,0)" xlink:href="#aV"/><use transform="matrix(0.05,0,0,0.05,15.949999999999998,0)" xlink:href="#aY"/><use transform="matrix(0.05,0,0,0.05,19.9,0)" xlink:href="#aQ"/><use transform="matrix(0.05,0,0,0.05,29.899999999999995,0)" xlink:href="#aR"/><use transform="matrix(0.05,0,0,0.05,34.9,0)" xlink:href="#aN"/><use transform="matrix(0.05,0,0,0.05,49.85,0)" xlink:href="#aO"/><use transform="matrix(0.05,0,0,0.05,59.85,0)" xlink:href="#aU"/><use transform="matrix(0.05,0,0,0.05,69.85,0)" xlink:href="#ba"/><use transform="matrix(0.05,0,0,0.05,73.8,0)" xlink:href="#bk"/><use transform="matrix(0.05,0,0,0.05,79.75,0)" xlink:href="#bl"/></g><path fill="#a9afb8" d="M67-125c0 54 23 88 75 88 28 0 53-7 68-21v-34h-60v-39h108v91C232-14 192 4 140 4 58 4 20-42 15-125 8-236 126-280 215-234c19 10 29 26 37 47l-47 15c-11-23-29-39-63-39-53 1-75 33-75 86" id="bs"/><path fill="#a9afb8" d="M135-150c-39-12-60 13-60 57V0H25l-1-190h47c2 13-1 29 3 40 6-28 27-53 61-41v41" id="bt"/><path fill="#a9afb8" d="M85 4C-2 5 27-109 22-190h50c7 57-23 150 33 157 60-5 35-97 40-157h50l1 190h-47c-2-12 1-28-3-38-12 25-28 42-61 42" id="bu"/><path fill="#a9afb8" d="M135-194c52 0 70 43 70 98 0 56-19 99-73 100-30 1-46-15-58-35L72 0H24l1-261h50v104c11-23 29-37 60-37zM114-30c31 0 40-27 40-66 0-37-7-63-39-63s-41 28-41 65c0 36 8 64 40 64" id="bv"/><path fill="#a9afb8" d="M169-182c-1-43-94-46-97-3 18 66 151 10 154 114 3 95-165 93-204 36-6-8-10-19-12-30l50-8c3 46 112 56 116 5-17-69-150-10-154-114-4-87 153-88 188-35 5 8 8 18 10 28" id="bw"/><path fill="#a9afb8" d="M133-34C117-15 103 5 69 4 32 3 11-16 11-54c-1-60 55-63 116-61 1-26-3-47-28-47-18 1-26 9-28 27l-52-2c7-38 36-58 82-57s74 22 75 68l1 82c-1 14 12 18 25 15v27c-30 8-71 5-69-32zm-48 3c29 0 43-24 42-57-32 0-66-3-65 30 0 17 8 27 23 27" id="bx"/><path fill="#a9afb8" d="M121-226c-27-7-43 5-38 36h38v33H83V0H34v-157H6v-33h28c-9-59 32-81 87-68v32" id="by"/><path fill="#a9afb8" d="M185-48c-13 30-37 53-82 52C43 2 14-33 14-96s30-98 90-98c62 0 83 45 84 108H66c0 31 8 55 39 56 18 0 30-7 34-22zm-45-69c5-46-57-63-70-21-2 6-4 13-4 21h74" id="bz"/><g id="p"><use transform="matrix(0.0728395061728395,0,0,0.0728395061728395,0,0)" xlink:href="#bs"/><use transform="matrix(0.0728395061728395,0,0,0.0728395061728395,20.39506172839506,0)" xlink:href="#bt"/><use transform="matrix(0.0728395061728395,0,0,0.0728395061728395,30.592592592592588,0)" xlink:href="#bu"/><use transform="matrix(0.0728395061728395,0,0,0.0728395061728395,46.54444444444444,0)" xlink:href="#bv"/><use transform="matrix(0.0728395061728395,0,0,0.0728395061728395,62.496296296296286,0)" xlink:href="#bw"/><use transform="matrix(0.0728395061728395,0,0,0.0728395061728395,79.97777777777776,0)" xlink:href="#bx"/><use transform="matrix(0.0728395061728395,0,0,0.0728395061728395,94.54567901234566,0)" xlink:href="#by"/><use transform="matrix(0.0728395061728395,0,0,0.0728395061728395,103.21358024691357,0)" xlink:href="#bz"/></g><path fill="#a9afb8" d="M238-95c0 69-44 99-111 99C63 4 22-25 22-93v-155h51v151c-1 38 19 59 55 60 90 1 49-130 58-211h52v153" id="bA"/><path fill="#a9afb8" d="M230 0l2-204L168 0h-37L68-204 70 0H24v-248h70l56 185 57-185h69V0h-46" id="bB"/><path fill="#a9afb8" d="M24 0v-248h52v208h133V0H24" id="bC"/><g id="q"><use transform="matrix(0.0728395061728395,0,0,0.0728395061728395,0,0)" xlink:href="#bA"/><use transform="matrix(0.0728395061728395,0,0,0.0728395061728395,18.86543209876543,0)" xlink:href="#bB"/><use transform="matrix(0.0728395061728395,0,0,0.0728395061728395,40.644444444444446,0)" xlink:href="#bC"/></g><path fill="#a9afb8" d="M190-63c-7 42-38 67-86 67-59 0-84-38-90-98-12-110 154-137 174-36l-49 2c-2-19-15-32-35-32-30 0-35 28-38 64-6 74 65 87 74 30" id="bD"/><path fill="#a9afb8" d="M25 0v-261h50V0H25" id="bE"/><path fill="#a9afb8" d="M137-138c1-29-70-34-71-4 15 46 118 7 119 86 1 83-164 76-172 9l43-7c4 19 20 25 44 25 33 8 57-30 24-41C81-84 22-81 20-136c-2-80 154-74 161-7" id="bF"/><g id="r"><use transform="matrix(0.0728395061728395,0,0,0.0728395061728395,0,0)" xlink:href="#bD"/><use transform="matrix(0.0728395061728395,0,0,0.0728395061728395,14.5679012345679,0)" xlink:href="#bE"/><use transform="matrix(0.0728395061728395,0,0,0.0728395061728395,21.85185185185185,0)" xlink:href="#bx"/><use transform="matrix(0.0728395061728395,0,0,0.0728395061728395,36.41975308641975,0)" xlink:href="#bF"/><use transform="matrix(0.0728395061728395,0,0,0.0728395061728395,50.98765432098765,0)" xlink:href="#bF"/></g><path fill="#a9afb8" d="M88-194c31-1 46 15 58 34l-1-101h50l1 261h-48c-2-10 0-23-3-31C134-8 116 4 84 4 32 4 16-41 15-95c0-56 19-97 73-99zm17 164c33 0 40-30 41-66 1-37-9-64-41-64s-38 30-39 65c0 43 13 65 39 65" id="bG"/><path fill="#a9afb8" d="M25-224v-37h50v37H25zM25 0v-190h50V0H25" id="bH"/><path fill="#a9afb8" d="M195-6C206 82 75 100 31 46c-4-6-6-13-8-21l49-6c3 16 16 24 34 25 40 0 42-37 40-79-11 22-30 35-61 35-53 0-70-43-70-97 0-56 18-96 73-97 30 0 46 14 59 34l2-30h47zm-90-29c32 0 41-27 41-63 0-35-9-62-40-62-32 0-39 29-40 63 0 36 9 62 39 62" id="bI"/><path fill="#a9afb8" d="M220-157c-53 9-28 100-34 157h-49v-107c1-27-5-49-29-50C55-147 81-57 75 0H25l-1-190h47c2 12-1 28 3 38 10-53 101-56 108 0 13-22 24-43 59-42 82 1 51 116 57 194h-49v-107c-1-25-5-48-29-50" id="bJ"/><g id="s"><use transform="matrix(0.0728395061728395,0,0,0.0728395061728395,0,0)" xlink:href="#bG"/><use transform="matrix(0.0728395061728395,0,0,0.0728395061728395,15.95185185185185,0)" xlink:href="#bH"/><use transform="matrix(0.0728395061728395,0,0,0.0728395061728395,23.235802469135802,0)" xlink:href="#bx"/><use transform="matrix(0.0728395061728395,0,0,0.0728395061728395,37.803703703703704,0)" xlink:href="#bI"/><use transform="matrix(0.0728395061728395,0,0,0.0728395061728395,53.75555555555555,0)" xlink:href="#bt"/><use transform="matrix(0.0728395061728395,0,0,0.0728395061728395,63.953086419753085,0)" xlink:href="#bx"/><use transform="matrix(0.0728395061728395,0,0,0.0728395061728395,78.52098765432099,0)" xlink:href="#bJ"/></g><path fill="#a9afb8" d="M160-131c35 5 61 23 61 61C221 17 115-2 30 0v-248c76 3 177-17 177 60 0 33-19 50-47 57zm-97-11c50-1 110 9 110-42 0-47-63-36-110-37v79zm0 115c55-2 124 14 124-45 0-56-70-42-124-44v89" id="bK"/><path fill="#a9afb8" d="M114-163C36-179 61-72 57 0H25l-1-190h30c1 12-1 29 2 39 6-27 23-49 58-41v29" id="bL"/><path fill="#a9afb8" d="M100-194c63 0 86 42 84 106H49c0 40 14 67 53 68 26 1 43-12 49-29l28 8c-11 28-37 45-77 45C44 4 14-33 15-96c1-61 26-98 85-98zm52 81c6-60-76-77-97-28-3 7-6 17-6 28h103" id="bM"/><path fill="#a9afb8" d="M59-47c-2 24 18 29 38 22v24C64 9 27 4 27-40v-127H5v-23h24l9-43h21v43h35v23H59v120" id="bN"/><g id="t"><use transform="matrix(0.04248971193415638,0,0,0.04248971193415638,0,0)" xlink:href="#bK"/><use transform="matrix(0.04248971193415638,0,0,0.04248971193415638,10.19753086419753,0)" xlink:href="#bL"/><use transform="matrix(0.04248971193415638,0,0,0.04248971193415638,15.25380658436214,0)" xlink:href="#bM"/><use transform="matrix(0.04248971193415638,0,0,0.04248971193415638,23.751748971193415,0)" xlink:href="#bN"/></g><path fill="#a9afb8" d="M185-189c-5-48-123-54-124 2 14 75 158 14 163 119 3 78-121 87-175 55-17-10-28-26-33-46l33-7c5 56 141 63 141-1 0-78-155-14-162-118-5-82 145-84 179-34 5 7 8 16 11 25" id="bO"/><path fill="#a9afb8" d="M145-31C134-9 116 4 85 4 32 4 16-35 15-94c0-59 17-99 70-100 32-1 48 14 60 33 0-11-1-24 2-32h30l-1 268h-32zM93-21c41 0 51-33 51-76s-8-73-50-73c-40 0-46 35-46 75s5 74 45 74" id="bP"/><path fill="#a9afb8" d="M84 4C-5 8 30-112 23-190h32v120c0 31 7 50 39 49 72-2 45-101 50-169h31l1 190h-30c-1-10 1-25-2-33-11 22-28 36-60 37" id="bQ"/><path fill="#a9afb8" d="M24-231v-30h32v30H24zM24 0v-190h32V0H24" id="bR"/><g id="u"><use transform="matrix(0.04248971193415638,0,0,0.04248971193415638,0,0)" xlink:href="#bO"/><use transform="matrix(0.04248971193415638,0,0,0.04248971193415638,10.19753086419753,0)" xlink:href="#bP"/><use transform="matrix(0.04248971193415638,0,0,0.04248971193415638,18.695473251028805,0)" xlink:href="#bQ"/><use transform="matrix(0.04248971193415638,0,0,0.04248971193415638,27.193415637860078,0)" xlink:href="#bR"/><use transform="matrix(0.04248971193415638,0,0,0.04248971193415638,30.55010288065843,0)" xlink:href="#bL"/><use transform="matrix(0.04248971193415638,0,0,0.04248971193415638,35.60637860082304,0)" xlink:href="#bM"/></g><path fill="#a9afb8" d="M32 76v-337h29V76H32" id="bS"/><use transform="matrix(0.04248971193415638,0,0,0.04248971193415638,0,0)" xlink:href="#bS" id="v"/><path fill="#a9afb8" d="M115-194c55 1 70 41 70 98S169 2 115 4C84 4 66-9 55-30l1 105H24l-1-265h31l2 30c10-21 28-34 59-34zm-8 174c40 0 45-34 45-75s-6-73-45-74c-42 0-51 32-51 76 0 43 10 73 51 73" id="bT"/><path fill="#a9afb8" d="M210-169c-67 3-38 105-44 169h-31v-121c0-29-5-50-35-48C34-165 62-65 56 0H25l-1-190h30c1 10-1 24 2 32 10-44 99-50 107 0 11-21 27-35 58-36 85-2 47 119 55 194h-31v-121c0-29-5-49-35-48" id="bU"/><path fill="#a9afb8" d="M115-194c53 0 69 39 70 98 0 66-23 100-70 100C84 3 66-7 56-30L54 0H23l1-261h32v101c10-23 28-34 59-34zm-8 174c40 0 45-34 45-75 0-40-5-75-45-74-42 0-51 32-51 76 0 43 10 73 51 73" id="bV"/><g id="w"><use transform="matrix(0.04248971193415638,0,0,0.04248971193415638,0,0)" xlink:href="#bO"/><use transform="matrix(0.04248971193415638,0,0,0.04248971193415638,10.19753086419753,0)" xlink:href="#bM"/><use transform="matrix(0.04248971193415638,0,0,0.04248971193415638,18.695473251028805,0)" xlink:href="#bT"/><use transform="matrix(0.04248971193415638,0,0,0.04248971193415638,27.193415637860078,0)" xlink:href="#bN"/><use transform="matrix(0.04248971193415638,0,0,0.04248971193415638,31.442386831275712,0)" xlink:href="#bM"/><use transform="matrix(0.04248971193415638,0,0,0.04248971193415638,39.94032921810699,0)" xlink:href="#bU"/><use transform="matrix(0.04248971193415638,0,0,0.04248971193415638,52.64475308641975,0)" xlink:href="#bV"/><use transform="matrix(0.04248971193415638,0,0,0.04248971193415638,61.142695473251024,0)" xlink:href="#bM"/><use transform="matrix(0.04248971193415638,0,0,0.04248971193415638,69.6406378600823,0)" xlink:href="#bL"/></g><path fill="#a9afb8" d="M101-251c82-7 93 87 43 132L82-64C71-53 59-42 53-27h129V0H18c2-99 128-94 128-182 0-28-16-43-45-43s-46 15-49 41l-32-3c6-41 34-60 81-64" id="bW"/><path fill="#a9afb8" d="M110-160c48 1 74 30 74 79 0 53-28 85-80 85-65 0-83-55-86-122-5-90 50-162 133-122 14 7 22 21 27 39l-31 6c-5-40-67-38-82-6-9 19-15 44-15 74 11-20 30-34 60-33zm-7 138c34 0 49-23 49-58s-16-56-50-56c-29 0-50 16-49 49 1 36 15 65 50 65" id="bX"/><path fill="#a9afb8" d="M68-38c1 34 0 65-14 84H32c9-13 17-26 17-46H33v-38h35" id="bY"/><g id="x"><use transform="matrix(0.04248971193415638,0,0,0.04248971193415638,0,0)" xlink:href="#bW"/><use transform="matrix(0.04248971193415638,0,0,0.04248971193415638,8.497942386831275,0)" xlink:href="#bX"/><use transform="matrix(0.04248971193415638,0,0,0.04248971193415638,16.99588477366255,0)" xlink:href="#bY"/></g><path fill="#a9afb8" d="M101-251c68 0 85 55 85 127S166 4 100 4C33 4 14-52 14-124c0-73 17-127 87-127zm-1 229c47 0 54-49 54-102s-4-102-53-102c-51 0-55 48-55 102 0 53 5 102 54 102" id="bZ"/><g id="y"><use transform="matrix(0.04248971193415638,0,0,0.04248971193415638,0,0)" xlink:href="#bW"/><use transform="matrix(0.04248971193415638,0,0,0.04248971193415638,8.497942386831275,0)" xlink:href="#bZ"/><use transform="matrix(0.04248971193415638,0,0,0.04248971193415638,16.99588477366255,0)" xlink:href="#bW"/><use transform="matrix(0.04248971193415638,0,0,0.04248971193415638,25.493827160493822,0)" xlink:href="#bW"/></g><path fill="#333" d="M15-91v-56l181-69v40L49-119l147 57v40" id="ca"/><path fill="#333" d="M137-138c1-29-70-34-71-4 15 46 118 7 119 86 1 83-164 76-172 9l43-7c4 19 20 25 44 25 33 8 57-30 24-41C81-84 22-81 20-136c-2-80 154-74 161-7" id="cb"/><path fill="#333" d="M115-3C79 11 28 4 28-45v-112H4v-33h27l15-45h31v45h36v33H77v99c-1 23 16 31 38 25v30" id="cc"/><path fill="#333" d="M135-150c-39-12-60 13-60 57V0H25l-1-190h47c2 13-1 29 3 40 6-28 27-53 61-41v41" id="cd"/><path fill="#333" d="M190-63c-7 42-38 67-86 67-59 0-84-38-90-98-12-110 154-137 174-36l-49 2c-2-19-15-32-35-32-30 0-35 28-38 64-6 74 65 87 74 30" id="ce"/><path fill="#333" d="M15-22v-40l146-57-146-57v-40l181 69v56" id="cf"/><g id="z"><use transform="matrix(0.05,0,0,0.05,0,0)" xlink:href="#ca"/><use transform="matrix(0.05,0,0,0.05,10.5,0)" xlink:href="#ca"/><use transform="matrix(0.05,0,0,0.05,21,0)" xlink:href="#cb"/><use transform="matrix(0.05,0,0,0.05,31,0)" xlink:href="#cc"/><use transform="matrix(0.05,0,0,0.05,36.95,0)" xlink:href="#cd"/><use transform="matrix(0.05,0,0,0.05,43.95,0)" xlink:href="#be"/><use transform="matrix(0.05,0,0,0.05,54.900000000000006,0)" xlink:href="#ce"/><use transform="matrix(0.05,0,0,0.05,64.9,0)" xlink:href="#cc"/><use transform="matrix(0.05,0,0,0.05,70.85000000000001,0)" xlink:href="#cf"/><use transform="matrix(0.05,0,0,0.05,81.35000000000001,0)" xlink:href="#cf"/></g><path fill="#333" d="M24 0v-248h52V0H24" id="cg"/><path fill="#333" d="M220-157c-53 9-28 100-34 157h-49v-107c1-27-5-49-29-50C55-147 81-57 75 0H25l-1-190h47c2 12-1 28 3 38 10-53 101-56 108 0 13-22 24-43 59-42 82 1 51 116 57 194h-49v-107c-1-25-5-48-29-50" id="ch"/><g id="A"><use transform="matrix(0.05,0,0,0.05,0,0)" xlink:href="#bb"/><use transform="matrix(0.05,0,0,0.05,14.950000000000001,0)" xlink:href="#bc"/><use transform="matrix(0.05,0,0,0.05,24.950000000000003,0)" xlink:href="#bd"/><use transform="matrix(0.05,0,0,0.05,35.900000000000006,0)" xlink:href="#be"/><use transform="matrix(0.05,0,0,0.05,46.85000000000001,0)" xlink:href="#cg"/><use transform="matrix(0.05,0,0,0.05,51.85,0)" xlink:href="#cc"/><use transform="matrix(0.05,0,0,0.05,57.80000000000001,0)" xlink:href="#bc"/><use transform="matrix(0.05,0,0,0.05,67.80000000000001,0)" xlink:href="#ch"/></g><path fill="#333" d="M67-93c0 74 22 123 53 168H70C40 30 18-18 18-93s22-123 52-168h50c-32 44-53 94-53 168" id="ci"/><path fill="#333" d="M88-194c31-1 46 15 58 34l-1-101h50l1 261h-48c-2-10 0-23-3-31C134-8 116 4 84 4 32 4 16-41 15-95c0-56 19-97 73-99zm17 164c33 0 40-30 41-66 1-37-9-64-41-64s-38 30-39 65c0 43 13 65 39 65" id="cj"/><path fill="#333" d="M25-224v-37h50v37H25zM25 0v-190h50V0H25" id="ck"/><path fill="#333" d="M121-226c-27-7-43 5-38 36h38v33H83V0H34v-157H6v-33h28c-9-59 32-81 87-68v32" id="cl"/><path fill="#333" d="M133-34C117-15 103 5 69 4 32 3 11-16 11-54c-1-60 55-63 116-61 1-26-3-47-28-47-18 1-26 9-28 27l-52-2c7-38 36-58 82-57s74 22 75 68l1 82c-1 14 12 18 25 15v27c-30 8-71 5-69-32zm-48 3c29 0 43-24 42-57-32 0-66-3-65 30 0 17 8 27 23 27" id="cm"/><path fill="#333" d="M135-194c52 0 70 43 70 98 0 56-19 99-73 100-30 1-46-15-58-35L72 0H24l1-261h50v104c11-23 29-37 60-37zM114-30c31 0 40-27 40-66 0-37-7-63-39-63s-41 28-41 65c0 36 8 64 40 64" id="cn"/><path fill="#333" d="M25 0v-261h50V0H25" id="co"/><path fill="#333" d="M76-54c-1 42 2 86-19 110H24C36 42 46 24 48 0H25v-54h51" id="cp"/><g id="B"><use transform="matrix(0.05,0,0,0.05,0,0)" xlink:href="#ci"/><use transform="matrix(0.05,0,0,0.05,5.95,0)" xlink:href="#cg"/><use transform="matrix(0.05,0,0,0.05,10.95,0)" xlink:href="#cj"/><use transform="matrix(0.05,0,0,0.05,21.9,0)" xlink:href="#bc"/><use transform="matrix(0.05,0,0,0.05,31.899999999999995,0)" xlink:href="#bd"/><use transform="matrix(0.05,0,0,0.05,42.85,0)" xlink:href="#cc"/><use transform="matrix(0.05,0,0,0.05,48.800000000000004,0)" xlink:href="#ck"/><use transform="matrix(0.05,0,0,0.05,53.800000000000004,0)" xlink:href="#cl"/><use transform="matrix(0.05,0,0,0.05,59.75,0)" xlink:href="#ck"/><use transform="matrix(0.05,0,0,0.05,64.75,0)" xlink:href="#cm"/><use transform="matrix(0.05,0,0,0.05,74.75,0)" xlink:href="#cn"/><use transform="matrix(0.05,0,0,0.05,85.7,0)" xlink:href="#co"/><use transform="matrix(0.05,0,0,0.05,90.7,0)" xlink:href="#bc"/><use transform="matrix(0.05,0,0,0.05,100.7,0)" xlink:href="#cp"/></g><path fill="#333" d="M186 0v-106H76V0H24v-248h52v99h110v-99h50V0h-50" id="cq"/><path fill="#333" d="M114-157C55-157 80-60 75 0H25v-261h50l-1 109c12-26 28-41 61-42 86-1 58 113 63 194h-50c-7-57 23-157-34-157" id="cr"/><g id="C"><use transform="matrix(0.05,0,0,0.05,0,0)" xlink:href="#cq"/><use transform="matrix(0.05,0,0,0.05,12.950000000000001,0)" xlink:href="#cm"/><use transform="matrix(0.05,0,0,0.05,22.950000000000003,0)" xlink:href="#cb"/><use transform="matrix(0.05,0,0,0.05,32.95,0)" xlink:href="#cr"/><use transform="matrix(0.05,0,0,0.05,43.900000000000006,0)" xlink:href="#cm"/><use transform="matrix(0.05,0,0,0.05,53.900000000000006,0)" xlink:href="#cn"/><use transform="matrix(0.05,0,0,0.05,64.85000000000001,0)" xlink:href="#co"/><use transform="matrix(0.05,0,0,0.05,69.85000000000001,0)" xlink:href="#bc"/><use transform="matrix(0.05,0,0,0.05,79.85000000000001,0)" xlink:href="#cp"/></g><path fill="#333" d="M67-125c0 53 21 87 73 88 37 1 54-22 65-47l45 17C233-25 199 4 140 4 58 4 20-42 15-125 8-235 124-281 211-232c18 10 29 29 36 50l-46 12c-8-25-30-41-62-41-52 0-71 34-72 86" id="cs"/><path fill="#333" d="M110-194c64 0 96 36 96 99 0 64-35 99-97 99-61 0-95-36-95-99 0-62 34-99 96-99zm-1 164c35 0 45-28 45-65 0-40-10-65-43-65-34 0-45 26-45 65 0 36 10 65 43 65" id="ct"/><path fill="#333" d="M102-93c0 74-22 123-52 168H0C30 29 54-18 53-93c0-74-22-123-53-168h50c30 45 52 94 52 168" id="cu"/><g id="D"><use transform="matrix(0.05,0,0,0.05,0,0)" xlink:href="#cs"/><use transform="matrix(0.05,0,0,0.05,12.950000000000001,0)" xlink:href="#ct"/><use transform="matrix(0.05,0,0,0.05,23.900000000000002,0)" xlink:href="#cj"/><use transform="matrix(0.05,0,0,0.05,34.85,0)" xlink:href="#cm"/><use transform="matrix(0.05,0,0,0.05,44.85,0)" xlink:href="#cn"/><use transform="matrix(0.05,0,0,0.05,55.800000000000004,0)" xlink:href="#co"/><use transform="matrix(0.05,0,0,0.05,60.800000000000004,0)" xlink:href="#bc"/><use transform="matrix(0.05,0,0,0.05,70.80000000000001,0)" xlink:href="#cu"/></g><g id="E"><use transform="matrix(0.05,0,0,0.05,0,0)" xlink:href="#aY"/><use transform="matrix(0.05,0,0,0.05,3.95,0)" xlink:href="#bo"/></g><g id="F"><use transform="matrix(0.05,0,0,0.05,0,0)" xlink:href="#aQ"/><use transform="matrix(0.05,0,0,0.05,10,0)" xlink:href="#aU"/><use transform="matrix(0.05,0,0,0.05,20,0)" xlink:href="#aP"/><use transform="matrix(0.05,0,0,0.05,34.95,0)" xlink:href="#aO"/></g><path fill="#333" d="M96-169c-40 0-48 33-48 73s9 75 48 75c24 0 41-14 43-38l32 2c-6 37-31 61-74 61-59 0-76-41-82-99-10-93 101-131 147-64 4 7 5 14 7 22l-32 3c-4-21-16-35-41-35" id="cv"/><g id="G"><use transform="matrix(0.05,0,0,0.05,0,0)" xlink:href="#bo"/><use transform="matrix(0.05,0,0,0.05,10,0)" xlink:href="#aO"/><use transform="matrix(0.05,0,0,0.05,20,0)" xlink:href="#bg"/><use transform="matrix(0.05,0,0,0.05,29,0)" xlink:href="#cv"/><use transform="matrix(0.05,0,0,0.05,38,0)" xlink:href="#aV"/><use transform="matrix(0.05,0,0,0.05,43.95,0)" xlink:href="#aY"/><use transform="matrix(0.05,0,0,0.05,47.900000000000006,0)" xlink:href="#br"/><use transform="matrix(0.05,0,0,0.05,57.900000000000006,0)" xlink:href="#aR"/><use transform="matrix(0.05,0,0,0.05,62.900000000000006,0)" xlink:href="#aY"/><use transform="matrix(0.05,0,0,0.05,66.85000000000001,0)" xlink:href="#aS"/><use transform="matrix(0.05,0,0,0.05,76.85000000000001,0)" xlink:href="#aQ"/></g><g id="H"><use transform="matrix(0.05,0,0,0.05,0,0)" xlink:href="#cv"/><use transform="matrix(0.05,0,0,0.05,9,0)" xlink:href="#aS"/><use transform="matrix(0.05,0,0,0.05,19,0)" xlink:href="#bg"/><use transform="matrix(0.05,0,0,0.05,28,0)" xlink:href="#aR"/></g><g id="I"><use transform="matrix(0.05,0,0,0.05,0,0)" xlink:href="#aU"/><use transform="matrix(0.05,0,0,0.05,10,0)" xlink:href="#ba"/><use transform="matrix(0.05,0,0,0.05,13.949999999999998,0)" xlink:href="#ba"/><use transform="matrix(0.05,0,0,0.05,17.9,0)" xlink:href="#aO"/><use transform="matrix(0.05,0,0,0.05,27.899999999999995,0)" xlink:href="#aV"/><use transform="matrix(0.05,0,0,0.05,33.85,0)" xlink:href="#aZ"/><use transform="matrix(0.05,0,0,0.05,43.85,0)" xlink:href="#aO"/><use transform="matrix(0.05,0,0,0.05,53.85,0)" xlink:href="#aQ"/><use transform="matrix(0.05,0,0,0.05,63.85,0)" xlink:href="#bg"/></g><path fill="#333" d="M190 0L58-211 59 0H30v-248h39L202-35l-2-213h31V0h-41" id="cw"/><g id="J"><use transform="matrix(0.05,0,0,0.05,0,0)" xlink:href="#aY"/><use transform="matrix(0.05,0,0,0.05,3.95,0)" xlink:href="#aP"/><use transform="matrix(0.05,0,0,0.05,18.900000000000002,0)" xlink:href="#aU"/><use transform="matrix(0.05,0,0,0.05,28.900000000000002,0)" xlink:href="#aZ"/><use transform="matrix(0.05,0,0,0.05,38.900000000000006,0)" xlink:href="#aO"/><use transform="matrix(0.05,0,0,0.05,48.900000000000006,0)" xlink:href="#cw"/><use transform="matrix(0.05,0,0,0.05,61.85,0)" xlink:href="#aU"/><use transform="matrix(0.05,0,0,0.05,71.85000000000001,0)" xlink:href="#aP"/><use transform="matrix(0.05,0,0,0.05,86.80000000000001,0)" xlink:href="#aO"/></g><path fill="#333" d="M205 0l-28-72H64L36 0H1l101-248h38L239 0h-34zm-38-99l-47-123c-12 45-31 82-46 123h93" id="cx"/><g id="K"><use transform="matrix(0.05,0,0,0.05,0,0)" xlink:href="#cv"/><use transform="matrix(0.05,0,0,0.05,9,0)" xlink:href="#aS"/><use transform="matrix(0.05,0,0,0.05,19,0)" xlink:href="#bg"/><use transform="matrix(0.05,0,0,0.05,28,0)" xlink:href="#aR"/><use transform="matrix(0.05,0,0,0.05,33,0)" xlink:href="#cx"/><use transform="matrix(0.05,0,0,0.05,45,0)" xlink:href="#bg"/><use transform="matrix(0.05,0,0,0.05,54,0)" xlink:href="#aX"/><use transform="matrix(0.05,0,0,0.05,66,0)" xlink:href="#aR"/><use transform="matrix(0.05,0,0,0.05,71,0)" xlink:href="#aV"/><use transform="matrix(0.05,0,0,0.05,76.95,0)" xlink:href="#aY"/><use transform="matrix(0.05,0,0,0.05,80.9,0)" xlink:href="#aQ"/><use transform="matrix(0.05,0,0,0.05,90.9,0)" xlink:href="#aZ"/><use transform="matrix(0.05,0,0,0.05,100.9,0)" xlink:href="#bk"/><use transform="matrix(0.05,0,0,0.05,106.85000000000001,0)" xlink:href="#bl"/></g><g id="L"><use transform="matrix(0.05,0,0,0.05,0,0)" xlink:href="#cv"/><use transform="matrix(0.05,0,0,0.05,9,0)" xlink:href="#aS"/><use transform="matrix(0.05,0,0,0.05,19,0)" xlink:href="#aP"/><use transform="matrix(0.05,0,0,0.05,33.95,0)" xlink:href="#br"/><use transform="matrix(0.05,0,0,0.05,43.95,0)" xlink:href="#bf"/><use transform="matrix(0.05,0,0,0.05,53.95,0)" xlink:href="#aR"/><use transform="matrix(0.05,0,0,0.05,58.95,0)" xlink:href="#aO"/><use transform="matrix(0.05,0,0,0.05,68.95,0)" xlink:href="#bo"/></g><path fill="#333" d="M106-169C34-169 62-67 57 0H25v-261h32l-1 103c12-21 28-36 61-36 89 0 53 116 60 194h-32v-121c2-32-8-49-39-48" id="cy"/><g id="M"><use transform="matrix(0.04320987654320988,0,0,0.04320987654320988,0,0)" xlink:href="#cy"/><use transform="matrix(0.04320987654320988,0,0,0.04320987654320988,8.641975308641976,0)" xlink:href="#aU"/><use transform="matrix(0.04320987654320988,0,0,0.04320987654320988,17.283950617283953,0)" xlink:href="#bg"/><use transform="matrix(0.04320987654320988,0,0,0.04320987654320988,25.06172839506173,0)" xlink:href="#aN"/><use transform="matrix(0.04320987654320988,0,0,0.04320987654320988,37.98148148148149,0)" xlink:href="#aU"/><use transform="matrix(0.04320987654320988,0,0,0.04320987654320988,46.62345679012346,0)" xlink:href="#aQ"/><use transform="matrix(0.04320987654320988,0,0,0.04320987654320988,55.26543209876544,0)" xlink:href="#bp"/></g><path fill="#333" d="M76-208v77h127v40H76V0H24v-248h183v40H76" id="cz"/><path fill="#333" d="M128 0H69L1-190h53L99-40l48-150h52" id="cA"/><g id="N"><use transform="matrix(0.05,0,0,0.05,0,0)" xlink:href="#cz"/><use transform="matrix(0.05,0,0,0.05,10.950000000000001,0)" xlink:href="#cm"/><use transform="matrix(0.05,0,0,0.05,20.950000000000003,0)" xlink:href="#cA"/><use transform="matrix(0.05,0,0,0.05,30.950000000000003,0)" xlink:href="#ct"/><use transform="matrix(0.05,0,0,0.05,41.900000000000006,0)" xlink:href="#cd"/><use transform="matrix(0.05,0,0,0.05,48.900000000000006,0)" xlink:href="#ck"/><use transform="matrix(0.05,0,0,0.05,53.900000000000006,0)" xlink:href="#cc"/><use transform="matrix(0.05,0,0,0.05,59.85,0)" xlink:href="#bc"/><use transform="matrix(0.05,0,0,0.05,69.85000000000001,0)" xlink:href="#cb"/></g><g id="O"><use transform="matrix(0.05,0,0,0.05,0,0)" xlink:href="#ci"/><use transform="matrix(0.05,0,0,0.05,5.95,0)" xlink:href="#cs"/><use transform="matrix(0.05,0,0,0.05,18.900000000000002,0)" xlink:href="#ct"/><use transform="matrix(0.05,0,0,0.05,29.85,0)" xlink:href="#cj"/><use transform="matrix(0.05,0,0,0.05,40.800000000000004,0)" xlink:href="#cm"/><use transform="matrix(0.05,0,0,0.05,50.800000000000004,0)" xlink:href="#cn"/><use transform="matrix(0.05,0,0,0.05,61.75,0)" xlink:href="#co"/><use transform="matrix(0.05,0,0,0.05,66.75,0)" xlink:href="#bc"/><use transform="matrix(0.05,0,0,0.05,76.75,0)" xlink:href="#cu"/></g><g id="P"><use transform="matrix(0.05,0,0,0.05,0,0)" xlink:href="#aY"/><use transform="matrix(0.05,0,0,0.05,3.95,0)" xlink:href="#aR"/><use transform="matrix(0.05,0,0,0.05,8.95,0)" xlink:href="#aO"/><use transform="matrix(0.05,0,0,0.05,18.95,0)" xlink:href="#aP"/><use transform="matrix(0.05,0,0,0.05,33.9,0)" xlink:href="#bg"/><use transform="matrix(0.05,0,0,0.05,42.9,0)" xlink:href="#bh"/></g><path fill="#333" d="M18-100v-36l175-74v27L42-118l151 64v27" id="cB"/><path fill="#333" d="M18-27v-27l151-64-151-65v-27l175 74v36" id="cC"/><g id="Q"><use transform="matrix(0.05,0,0,0.05,0,0)" xlink:href="#aX"/><use transform="matrix(0.05,0,0,0.05,12,0)" xlink:href="#aO"/><use transform="matrix(0.05,0,0,0.05,22,0)" xlink:href="#aR"/><use transform="matrix(0.05,0,0,0.05,27,0)" xlink:href="#cB"/><use transform="matrix(0.05,0,0,0.05,37.5,0)" xlink:href="#aN"/><use transform="matrix(0.05,0,0,0.05,52.45,0)" xlink:href="#aO"/><use transform="matrix(0.05,0,0,0.05,62.45,0)" xlink:href="#aQ"/><use transform="matrix(0.05,0,0,0.05,72.45,0)" xlink:href="#bf"/><use transform="matrix(0.05,0,0,0.05,82.45,0)" xlink:href="#aW"/><use transform="matrix(0.05,0,0,0.05,87.45,0)" xlink:href="#aR"/><use transform="matrix(0.05,0,0,0.05,92.45,0)" xlink:href="#aO"/><use transform="matrix(0.05,0,0,0.05,102.45,0)" xlink:href="#aP"/><use transform="matrix(0.05,0,0,0.05,117.4,0)" xlink:href="#bg"/><use transform="matrix(0.05,0,0,0.05,126.4,0)" xlink:href="#cC"/></g><path fill="#333" d="M108 0H70L1-190h34L89-25l56-165h34" id="cD"/><g id="R"><use transform="matrix(0.05,0,0,0.05,0,0)" xlink:href="#br"/><use transform="matrix(0.05,0,0,0.05,10,0)" xlink:href="#aV"/><use transform="matrix(0.05,0,0,0.05,15.949999999999998,0)" xlink:href="#aY"/><use transform="matrix(0.05,0,0,0.05,19.9,0)" xlink:href="#cD"/><use transform="matrix(0.05,0,0,0.05,28.899999999999995,0)" xlink:href="#aU"/><use transform="matrix(0.05,0,0,0.05,38.9,0)" xlink:href="#aR"/><use transform="matrix(0.05,0,0,0.05,43.9,0)" xlink:href="#aO"/></g><path fill="#333" d="M30-248c118-7 216 8 213 122C240-48 200 0 122 0H30v-248zM63-27c89 8 146-16 146-99s-60-101-146-95v194" id="cE"/><g id="S"><use transform="matrix(0.05,0,0,0.05,0,0)" xlink:href="#aY"/><use transform="matrix(0.05,0,0,0.05,3.95,0)" xlink:href="#aQ"/><use transform="matrix(0.05,0,0,0.05,13.949999999999998,0)" xlink:href="#aR"/><use transform="matrix(0.05,0,0,0.05,18.95,0)" xlink:href="#cE"/><use transform="matrix(0.05,0,0,0.05,31.899999999999995,0)" xlink:href="#bf"/><use transform="matrix(0.05,0,0,0.05,41.9,0)" xlink:href="#aP"/><use transform="matrix(0.05,0,0,0.05,56.85,0)" xlink:href="#aP"/><use transform="matrix(0.05,0,0,0.05,71.8,0)" xlink:href="#bp"/><use transform="matrix(0.05,0,0,0.05,80.8,0)" xlink:href="#bk"/><use transform="matrix(0.05,0,0,0.05,86.75,0)" xlink:href="#bl"/></g><path fill="#333" d="M63-220v92h138v28H63V0H30v-248h175v28H63" id="cF"/><g id="T"><use transform="matrix(0.05,0,0,0.05,0,0)" xlink:href="#aY"/><use transform="matrix(0.05,0,0,0.05,3.95,0)" xlink:href="#bg"/><use transform="matrix(0.05,0,0,0.05,12.949999999999998,0)" xlink:href="#cF"/><use transform="matrix(0.05,0,0,0.05,23.9,0)" xlink:href="#aU"/><use transform="matrix(0.05,0,0,0.05,33.9,0)" xlink:href="#cD"/><use transform="matrix(0.05,0,0,0.05,42.9,0)" xlink:href="#aS"/><use transform="matrix(0.05,0,0,0.05,52.900000000000006,0)" xlink:href="#aV"/><use transform="matrix(0.05,0,0,0.05,58.85,0)" xlink:href="#aY"/><use transform="matrix(0.05,0,0,0.05,62.800000000000004,0)" xlink:href="#aR"/><use transform="matrix(0.05,0,0,0.05,67.80000000000001,0)" xlink:href="#aO"/><use transform="matrix(0.05,0,0,0.05,77.80000000000001,0)" xlink:href="#bk"/><use transform="matrix(0.05,0,0,0.05,83.75000000000001,0)" xlink:href="#aY"/><use transform="matrix(0.05,0,0,0.05,87.70000000000002,0)" xlink:href="#aR"/><use transform="matrix(0.05,0,0,0.05,92.70000000000002,0)" xlink:href="#aO"/><use transform="matrix(0.05,0,0,0.05,102.7,0)" xlink:href="#aP"/><use transform="matrix(0.05,0,0,0.05,117.65000000000003,0)" xlink:href="#bh"/></g><g id="U"><use transform="matrix(0.05,0,0,0.05,0,0)" xlink:href="#aN"/><use transform="matrix(0.05,0,0,0.05,14.950000000000001,0)" xlink:href="#aO"/><use transform="matrix(0.05,0,0,0.05,24.950000000000003,0)" xlink:href="#aQ"/><use transform="matrix(0.05,0,0,0.05,34.95,0)" xlink:href="#bf"/><use transform="matrix(0.05,0,0,0.05,44.95,0)" xlink:href="#aW"/><use transform="matrix(0.05,0,0,0.05,49.95,0)" xlink:href="#aR"/><use transform="matrix(0.05,0,0,0.05,54.95,0)" xlink:href="#aO"/><use transform="matrix(0.05,0,0,0.05,64.95,0)" xlink:href="#aP"/><use transform="matrix(0.05,0,0,0.05,79.9,0)" xlink:href="#bl"/></g><g id="V"><use transform="matrix(0.05,0,0,0.05,0,0)" xlink:href="#aR"/><use transform="matrix(0.05,0,0,0.05,5,0)" xlink:href="#aS"/><use transform="matrix(0.05,0,0,0.05,15,0)" xlink:href="#aZ"/><use transform="matrix(0.05,0,0,0.05,25,0)" xlink:href="#aZ"/><use transform="matrix(0.05,0,0,0.05,35,0)" xlink:href="#ba"/><use transform="matrix(0.05,0,0,0.05,38.95,0)" xlink:href="#aO"/><use transform="matrix(0.05,0,0,0.05,48.95,0)" xlink:href="#bk"/><use transform="matrix(0.05,0,0,0.05,54.900000000000006,0)" xlink:href="#aR"/><use transform="matrix(0.05,0,0,0.05,59.900000000000006,0)" xlink:href="#aO"/><use transform="matrix(0.05,0,0,0.05,69.9,0)" xlink:href="#aP"/><use transform="matrix(0.05,0,0,0.05,84.85000000000001,0)" xlink:href="#bh"/></g><g id="W"><use transform="matrix(0.05,0,0,0.05,0,0)" xlink:href="#aN"/><use transform="matrix(0.05,0,0,0.05,14.950000000000001,0)" xlink:href="#aO"/><use transform="matrix(0.05,0,0,0.05,24.950000000000003,0)" xlink:href="#aQ"/><use transform="matrix(0.05,0,0,0.05,34.95,0)" xlink:href="#bf"/><use transform="matrix(0.05,0,0,0.05,44.95,0)" xlink:href="#aW"/><use transform="matrix(0.05,0,0,0.05,49.95,0)" xlink:href="#aR"/><use transform="matrix(0.05,0,0,0.05,54.95,0)" xlink:href="#aO"/><use transform="matrix(0.05,0,0,0.05,64.95,0)" xlink:href="#aP"/><use transform="matrix(0.05,0,0,0.05,79.9,0)" xlink:href="#bl"/></g><path d="M15-91v-56l181-69v40L49-119l147 57v40" id="cG"/><path d="M185-48c-13 30-37 53-82 52C43 2 14-33 14-96s30-98 90-98c62 0 83 45 84 108H66c0 31 8 55 39 56 18 0 30-7 34-22zm-45-69c5-46-57-63-70-21-2 6-4 13-4 21h74" id="cH"/><path d="M144 0l-44-69L55 0H2l70-98-66-92h53l41 62 40-62h54l-67 91 71 99h-54" id="cI"/><path d="M115-3C79 11 28 4 28-45v-112H4v-33h27l15-45h31v45h36v33H77v99c-1 23 16 31 38 25v30" id="cJ"/><path d="M135-194c87-1 58 113 63 194h-50c-7-57 23-157-34-157-59 0-34 97-39 157H25l-1-190h47c2 12-1 28 3 38 12-26 28-41 61-42" id="cK"/><path d="M137-138c1-29-70-34-71-4 15 46 118 7 119 86 1 83-164 76-172 9l43-7c4 19 20 25 44 25 33 8 57-30 24-41C81-84 22-81 20-136c-2-80 154-74 161-7" id="cL"/><path d="M25-224v-37h50v37H25zM25 0v-190h50V0H25" id="cM"/><path d="M110-194c64 0 96 36 96 99 0 64-35 99-97 99-61 0-95-36-95-99 0-62 34-99 96-99zm-1 164c35 0 45-28 45-65 0-40-10-65-43-65-34 0-45 26-45 65 0 36 10 65 43 65" id="cN"/><path d="M15-22v-40l146-57-146-57v-40l181 69v56" id="cO"/><g id="X"><use transform="matrix(0.05,0,0,0.05,0,0)" xlink:href="#cG"/><use transform="matrix(0.05,0,0,0.05,10.5,0)" xlink:href="#cG"/><use transform="matrix(0.05,0,0,0.05,21,0)" xlink:href="#cH"/><use transform="matrix(0.05,0,0,0.05,31,0)" xlink:href="#cI"/><use transform="matrix(0.05,0,0,0.05,41,0)" xlink:href="#cJ"/><use transform="matrix(0.05,0,0,0.05,46.95,0)" xlink:href="#cH"/><use transform="matrix(0.05,0,0,0.05,56.95,0)" xlink:href="#cK"/><use transform="matrix(0.05,0,0,0.05,67.9,0)" xlink:href="#cL"/><use transform="matrix(0.05,0,0,0.05,77.9,0)" xlink:href="#cM"/><use transform="matrix(0.05,0,0,0.05,82.9,0)" xlink:href="#cN"/><use transform="matrix(0.05,0,0,0.05,93.85000000000001,0)" xlink:href="#cK"/><use transform="matrix(0.05,0,0,0.05,104.80000000000001,0)" xlink:href="#cO"/><use transform="matrix(0.05,0,0,0.05,115.30000000000001,0)" xlink:href="#cO"/></g><path d="M76-208v77h127v40H76V0H24v-248h183v40H76" id="cP"/><path d="M133-34C117-15 103 5 69 4 32 3 11-16 11-54c-1-60 55-63 116-61 1-26-3-47-28-47-18 1-26 9-28 27l-52-2c7-38 36-58 82-57s74 22 75 68l1 82c-1 14 12 18 25 15v27c-30 8-71 5-69-32zm-48 3c29 0 43-24 42-57-32 0-66-3-65 30 0 17 8 27 23 27" id="cQ"/><path d="M128 0H69L1-190h53L99-40l48-150h52" id="cR"/><path d="M135-150c-39-12-60 13-60 57V0H25l-1-190h47c2 13-1 29 3 40 6-28 27-53 61-41v41" id="cS"/><g id="Y"><use transform="matrix(0.05,0,0,0.05,0,0)" xlink:href="#cP"/><use transform="matrix(0.05,0,0,0.05,10.950000000000001,0)" xlink:href="#cQ"/><use transform="matrix(0.05,0,0,0.05,20.950000000000003,0)" xlink:href="#cR"/><use transform="matrix(0.05,0,0,0.05,30.950000000000003,0)" xlink:href="#cN"/><use transform="matrix(0.05,0,0,0.05,41.900000000000006,0)" xlink:href="#cS"/><use transform="matrix(0.05,0,0,0.05,48.900000000000006,0)" xlink:href="#cM"/><use transform="matrix(0.05,0,0,0.05,53.900000000000006,0)" xlink:href="#cJ"/><use transform="matrix(0.05,0,0,0.05,59.85,0)" xlink:href="#cH"/><use transform="matrix(0.05,0,0,0.05,69.85000000000001,0)" xlink:href="#cL"/></g><path d="M67-93c0 74 22 123 53 168H70C40 30 18-18 18-93s22-123 52-168h50c-32 44-53 94-53 168" id="cT"/><path d="M169-182c-1-43-94-46-97-3 18 66 151 10 154 114 3 95-165 93-204 36-6-8-10-19-12-30l50-8c3 46 112 56 116 5-17-69-150-10-154-114-4-87 153-88 188-35 5 8 8 18 10 28" id="cU"/><path d="M84 4C32 4 15-41 15-95c0-55 18-99 73-99 29 0 47 12 58 34l2-30h48l-1 265h-49V-32C136-9 114 4 84 4zm21-34c32 0 41-29 41-66 0-36-9-64-40-64-33 0-39 30-40 65 0 43 13 65 39 65" id="cV"/><path d="M85 4C-2 5 27-109 22-190h50c7 57-23 150 33 157 60-5 35-97 40-157h50l1 190h-47c-2-12 1-28-3-38-12 25-28 42-61 42" id="cW"/><path d="M190-63c-7 42-38 67-86 67-59 0-84-38-90-98-12-110 154-137 174-36l-49 2c-2-19-15-32-35-32-30 0-35 28-38 64-6 74 65 87 74 30" id="cX"/><path d="M4 7l51-268h42L46 7H4" id="cY"/><path d="M24 0v-248h52V0H24" id="cZ"/><path d="M135-194c52 0 70 43 70 98 0 56-19 99-73 100-30 1-46-15-58-35L72 0H24l1-261h50v104c11-23 29-37 60-37zM114-30c31 0 40-27 40-66 0-37-7-63-39-63s-41 28-41 65c0 36 8 64 40 64" id="da"/><path d="M25 0v-261h50V0H25" id="db"/><path d="M102-93c0 74-22 123-52 168H0C30 29 54-18 53-93c0-74-22-123-53-168h50c30 45 52 94 52 168" id="dc"/><g id="Z"><use transform="matrix(0.05,0,0,0.05,0,0)" xlink:href="#cT"/><use transform="matrix(0.05,0,0,0.05,5.95,0)" xlink:href="#cU"/><use transform="matrix(0.05,0,0,0.05,17.95,0)" xlink:href="#cH"/><use transform="matrix(0.05,0,0,0.05,27.950000000000003,0)" xlink:href="#cV"/><use transform="matrix(0.05,0,0,0.05,38.9,0)" xlink:href="#cW"/><use transform="matrix(0.05,0,0,0.05,49.85,0)" xlink:href="#cH"/><use transform="matrix(0.05,0,0,0.05,59.85,0)" xlink:href="#cK"/><use transform="matrix(0.05,0,0,0.05,70.8,0)" xlink:href="#cX"/><use transform="matrix(0.05,0,0,0.05,80.8,0)" xlink:href="#cH"/><use transform="matrix(0.05,0,0,0.05,90.8,0)" xlink:href="#cY"/><use transform="matrix(0.05,0,0,0.05,95.8,0)" xlink:href="#cZ"/><use transform="matrix(0.05,0,0,0.05,100.8,0)" xlink:href="#cJ"/><use transform="matrix(0.05,0,0,0.05,106.75,0)" xlink:href="#cH"/><use transform="matrix(0.05,0,0,0.05,116.75,0)" xlink:href="#cS"/><use transform="matrix(0.05,0,0,0.05,123.75,0)" xlink:href="#cQ"/><use transform="matrix(0.05,0,0,0.05,133.75,0)" xlink:href="#da"/><use transform="matrix(0.05,0,0,0.05,144.7,0)" xlink:href="#db"/><use transform="matrix(0.05,0,0,0.05,149.7,0)" xlink:href="#cH"/><use transform="matrix(0.05,0,0,0.05,159.7,0)" xlink:href="#dc"/></g><path fill="#333" d="M143 0L79-87 56-68V0H24v-261h32v163l83-92h37l-77 82L181 0h-38" id="dd"/><g id="aa"><use transform="matrix(0.05,0,0,0.05,0,0)" xlink:href="#aP"/><use transform="matrix(0.05,0,0,0.05,14.950000000000001,0)" xlink:href="#aU"/><use transform="matrix(0.05,0,0,0.05,24.950000000000003,0)" xlink:href="#dd"/><use transform="matrix(0.05,0,0,0.05,33.95,0)" xlink:href="#aO"/><use transform="matrix(0.05,0,0,0.05,43.95,0)" xlink:href="#aW"/><use transform="matrix(0.05,0,0,0.05,48.95,0)" xlink:href="#aR"/><use transform="matrix(0.05,0,0,0.05,53.95,0)" xlink:href="#aO"/><use transform="matrix(0.05,0,0,0.05,63.95,0)" xlink:href="#aV"/><use transform="matrix(0.05,0,0,0.05,69.9,0)" xlink:href="#aU"/><use transform="matrix(0.05,0,0,0.05,79.9,0)" xlink:href="#aR"/><use transform="matrix(0.05,0,0,0.05,84.9,0)" xlink:href="#aS"/><use transform="matrix(0.05,0,0,0.05,94.9,0)" xlink:href="#aV"/><use transform="matrix(0.05,0,0,0.05,100.85000000000001,0)" xlink:href="#bk"/><use transform="matrix(0.05,0,0,0.05,106.80000000000001,0)" xlink:href="#bl"/></g><path fill="#333" d="M141 0L90-78 38 0H4l68-98-65-92h35l48 74 47-74h35l-64 92 68 98h-35" id="de"/><g id="ab"><use transform="matrix(0.04320987654320988,0,0,0.04320987654320988,0,0)" xlink:href="#aO"/><use transform="matrix(0.04320987654320988,0,0,0.04320987654320988,8.641975308641976,0)" xlink:href="#de"/><use transform="matrix(0.04320987654320988,0,0,0.04320987654320988,16.419753086419753,0)" xlink:href="#aR"/></g><path fill="#333" d="M140-251c80 0 125 45 125 126S219 4 139 4C58 4 15-44 15-125s44-126 125-126zm-1 214c52 0 73-35 73-88 0-50-21-86-72-86-52 0-73 35-73 86s22 88 72 88" id="df"/><g id="ac"><use transform="matrix(0.05,0,0,0.05,0,0)" xlink:href="#df"/><use transform="matrix(0.05,0,0,0.05,14,0)" xlink:href="#cd"/><use transform="matrix(0.05,0,0,0.05,21,0)" xlink:href="#cj"/><use transform="matrix(0.05,0,0,0.05,31.950000000000003,0)" xlink:href="#bc"/><use transform="matrix(0.05,0,0,0.05,41.95,0)" xlink:href="#cd"/></g><g id="ad"><use transform="matrix(0.05,0,0,0.05,0,0)" xlink:href="#bg"/><use transform="matrix(0.05,0,0,0.05,9,0)" xlink:href="#aO"/><use transform="matrix(0.05,0,0,0.05,19,0)" xlink:href="#ba"/><use transform="matrix(0.05,0,0,0.05,22.95,0)" xlink:href="#aO"/><use transform="matrix(0.05,0,0,0.05,32.95,0)" xlink:href="#cv"/><use transform="matrix(0.05,0,0,0.05,41.95,0)" xlink:href="#aR"/><use transform="matrix(0.05,0,0,0.05,46.95,0)" xlink:href="#aY"/><use transform="matrix(0.05,0,0,0.05,50.900000000000006,0)" xlink:href="#aS"/><use transform="matrix(0.05,0,0,0.05,60.900000000000006,0)" xlink:href="#aQ"/><use transform="matrix(0.05,0,0,0.05,70.9,0)" xlink:href="#bh"/></g><g id="ae"><use transform="matrix(0.05,0,0,0.05,0,0)" xlink:href="#aR"/><use transform="matrix(0.05,0,0,0.05,5,0)" xlink:href="#aS"/><use transform="matrix(0.05,0,0,0.05,15,0)" xlink:href="#aR"/><use transform="matrix(0.05,0,0,0.05,20,0)" xlink:href="#aU"/><use transform="matrix(0.05,0,0,0.05,30,0)" xlink:href="#ba"/></g><g id="af"><use transform="matrix(0.05,0,0,0.05,0,0)" xlink:href="#cv"/><use transform="matrix(0.05,0,0,0.05,9,0)" xlink:href="#aS"/><use transform="matrix(0.05,0,0,0.05,19,0)" xlink:href="#aP"/><use transform="matrix(0.05,0,0,0.05,33.95,0)" xlink:href="#br"/><use transform="matrix(0.05,0,0,0.05,43.95,0)" xlink:href="#bf"/><use transform="matrix(0.05,0,0,0.05,53.95,0)" xlink:href="#aR"/><use transform="matrix(0.05,0,0,0.05,58.95,0)" xlink:href="#aO"/><use transform="matrix(0.05,0,0,0.05,68.95,0)" xlink:href="#bo"/></g><g id="ag"><use transform="matrix(0.05,0,0,0.05,0,0)" xlink:href="#bo"/><use transform="matrix(0.05,0,0,0.05,10,0)" xlink:href="#aY"/><use transform="matrix(0.05,0,0,0.05,13.949999999999998,0)" xlink:href="#bg"/><use transform="matrix(0.05,0,0,0.05,22.95,0)" xlink:href="#cv"/><use transform="matrix(0.05,0,0,0.05,31.950000000000003,0)" xlink:href="#aS"/><use transform="matrix(0.05,0,0,0.05,41.95,0)" xlink:href="#bf"/><use transform="matrix(0.05,0,0,0.05,51.95,0)" xlink:href="#aQ"/><use transform="matrix(0.05,0,0,0.05,61.95,0)" xlink:href="#aR"/></g><path fill="#333" d="M127-220V0H93v-220H8v-28h204v28h-85" id="dg"/><g id="ah"><use transform="matrix(0.05,0,0,0.05,0,0)" xlink:href="#bo"/><use transform="matrix(0.05,0,0,0.05,10,0)" xlink:href="#aY"/><use transform="matrix(0.05,0,0,0.05,13.949999999999998,0)" xlink:href="#bg"/><use transform="matrix(0.05,0,0,0.05,22.95,0)" xlink:href="#cv"/><use transform="matrix(0.05,0,0,0.05,31.950000000000003,0)" xlink:href="#aS"/><use transform="matrix(0.05,0,0,0.05,41.95,0)" xlink:href="#bf"/><use transform="matrix(0.05,0,0,0.05,51.95,0)" xlink:href="#aQ"/><use transform="matrix(0.05,0,0,0.05,61.95,0)" xlink:href="#aR"/><use transform="matrix(0.05,0,0,0.05,66.95,0)" xlink:href="#aO"/><use transform="matrix(0.05,0,0,0.05,76.95,0)" xlink:href="#bo"/><use transform="matrix(0.05,0,0,0.05,86.95,0)" xlink:href="#dg"/><use transform="matrix(0.05,0,0,0.05,95.9,0)" xlink:href="#aS"/><use transform="matrix(0.05,0,0,0.05,105.9,0)" xlink:href="#aR"/><use transform="matrix(0.05,0,0,0.05,110.9,0)" xlink:href="#aU"/><use transform="matrix(0.05,0,0,0.05,120.9,0)" xlink:href="#ba"/></g><g id="ai"><use transform="matrix(0.05,0,0,0.05,0,0)" xlink:href="#bo"/><use transform="matrix(0.05,0,0,0.05,10,0)" xlink:href="#aO"/><use transform="matrix(0.05,0,0,0.05,20,0)" xlink:href="#bg"/><use transform="matrix(0.05,0,0,0.05,29,0)" xlink:href="#cv"/><use transform="matrix(0.05,0,0,0.05,38,0)" xlink:href="#aV"/><use transform="matrix(0.05,0,0,0.05,43.95,0)" xlink:href="#aY"/><use transform="matrix(0.05,0,0,0.05,47.900000000000006,0)" xlink:href="#br"/><use transform="matrix(0.05,0,0,0.05,57.900000000000006,0)" xlink:href="#aR"/><use transform="matrix(0.05,0,0,0.05,62.900000000000006,0)" xlink:href="#aY"/><use transform="matrix(0.05,0,0,0.05,66.85000000000001,0)" xlink:href="#aS"/><use transform="matrix(0.05,0,0,0.05,76.85000000000001,0)" xlink:href="#aQ"/></g><g id="aj"><use transform="matrix(0.05,0,0,0.05,0,0)" xlink:href="#bo"/><use transform="matrix(0.05,0,0,0.05,10,0)" xlink:href="#aU"/><use transform="matrix(0.05,0,0,0.05,20,0)" xlink:href="#aR"/><use transform="matrix(0.05,0,0,0.05,25,0)" xlink:href="#aU"/></g><g id="ak"><use transform="matrix(0.05,0,0,0.05,0,0)" xlink:href="#ca"/><use transform="matrix(0.05,0,0,0.05,10.5,0)" xlink:href="#ca"/><use transform="matrix(0.05,0,0,0.05,21,0)" xlink:href="#bc"/><use transform="matrix(0.05,0,0,0.05,31,0)" xlink:href="#bd"/><use transform="matrix(0.05,0,0,0.05,41.95,0)" xlink:href="#be"/><use transform="matrix(0.05,0,0,0.05,52.900000000000006,0)" xlink:href="#ch"/><use transform="matrix(0.05,0,0,0.05,68.9,0)" xlink:href="#cf"/><use transform="matrix(0.05,0,0,0.05,79.4,0)" xlink:href="#cf"/></g><path fill="#333" d="M24-248c120-7 223 5 221 122C244-46 201 0 124 0H24v-248zM76-40c74 7 117-18 117-86 0-67-45-88-117-82v168" id="dh"/><g id="al"><use transform="matrix(0.05,0,0,0.05,0,0)" xlink:href="#dh"/><use transform="matrix(0.05,0,0,0.05,12.950000000000001,0)" xlink:href="#ck"/><use transform="matrix(0.05,0,0,0.05,17.950000000000003,0)" xlink:href="#cb"/><use transform="matrix(0.05,0,0,0.05,27.950000000000003,0)" xlink:href="#ce"/><use transform="matrix(0.05,0,0,0.05,37.95,0)" xlink:href="#ct"/><use transform="matrix(0.05,0,0,0.05,48.900000000000006,0)" xlink:href="#be"/><use transform="matrix(0.05,0,0,0.05,59.85,0)" xlink:href="#bd"/><use transform="matrix(0.05,0,0,0.05,70.80000000000001,0)" xlink:href="#cc"/></g><g id="am"><use transform="matrix(0.05,0,0,0.05,0,0)" xlink:href="#aU"/><use transform="matrix(0.05,0,0,0.05,10,0)" xlink:href="#br"/><use transform="matrix(0.05,0,0,0.05,20,0)" xlink:href="#br"/><use transform="matrix(0.05,0,0,0.05,30,0)" xlink:href="#ba"/><use transform="matrix(0.05,0,0,0.05,33.95,0)" xlink:href="#bp"/><use transform="matrix(0.05,0,0,0.05,42.95,0)" xlink:href="#cE"/><use transform="matrix(0.05,0,0,0.05,55.900000000000006,0)" xlink:href="#aY"/><use transform="matrix(0.05,0,0,0.05,59.85,0)" xlink:href="#bg"/><use transform="matrix(0.05,0,0,0.05,68.85000000000001,0)" xlink:href="#cv"/><use transform="matrix(0.05,0,0,0.05,77.85000000000001,0)" xlink:href="#aS"/><use transform="matrix(0.05,0,0,0.05,87.85000000000001,0)" xlink:href="#bf"/><use transform="matrix(0.05,0,0,0.05,97.85000000000001,0)" xlink:href="#aQ"/><use transform="matrix(0.05,0,0,0.05,107.85000000000001,0)" xlink:href="#aR"/><use transform="matrix(0.05,0,0,0.05,112.85000000000001,0)" xlink:href="#bk"/><use transform="matrix(0.05,0,0,0.05,118.80000000000001,0)" xlink:href="#bq"/><use transform="matrix(0.05,0,0,0.05,123.80000000000001,0)" xlink:href="#bq"/><use transform="matrix(0.05,0,0,0.05,128.8,0)" xlink:href="#bq"/><use transform="matrix(0.05,0,0,0.05,133.8,0)" xlink:href="#bl"/></g><g id="an"><use transform="matrix(0.04320987654320988,0,0,0.04320987654320988,0,0)" xlink:href="#cy"/><use transform="matrix(0.04320987654320988,0,0,0.04320987654320988,8.641975308641976,0)" xlink:href="#aU"/><use transform="matrix(0.04320987654320988,0,0,0.04320987654320988,17.283950617283953,0)" xlink:href="#bg"/></g><g id="ao"><use transform="matrix(0.05,0,0,0.05,0,0)" xlink:href="#cx"/><use transform="matrix(0.05,0,0,0.05,12,0)" xlink:href="#br"/><use transform="matrix(0.05,0,0,0.05,22,0)" xlink:href="#br"/><use transform="matrix(0.05,0,0,0.05,32,0)" xlink:href="#aX"/><use transform="matrix(0.05,0,0,0.05,44,0)" xlink:href="#aO"/><use transform="matrix(0.05,0,0,0.05,54,0)" xlink:href="#aR"/><use transform="matrix(0.05,0,0,0.05,59,0)" xlink:href="#aR"/><use transform="matrix(0.05,0,0,0.05,64,0)" xlink:href="#aY"/><use transform="matrix(0.05,0,0,0.05,67.95,0)" xlink:href="#aQ"/><use transform="matrix(0.05,0,0,0.05,77.95,0)" xlink:href="#aZ"/><use transform="matrix(0.05,0,0,0.05,87.95,0)" xlink:href="#bg"/></g><g id="ap"><use transform="matrix(0.05,0,0,0.05,0,0)" xlink:href="#bg"/><use transform="matrix(0.05,0,0,0.05,9,0)" xlink:href="#cy"/><use transform="matrix(0.05,0,0,0.05,19,0)" xlink:href="#aU"/><use transform="matrix(0.05,0,0,0.05,29,0)" xlink:href="#aV"/><use transform="matrix(0.05,0,0,0.05,34.95,0)" xlink:href="#aO"/><use transform="matrix(0.05,0,0,0.05,44.95,0)" xlink:href="#bo"/></g><g id="aq"><use transform="matrix(0.05,0,0,0.05,0,0)" xlink:href="#bm"/><use transform="matrix(0.05,0,0,0.05,5,0)" xlink:href="#bm"/></g><g id="ar"><use transform="matrix(0.05,0,0,0.05,0,0)" xlink:href="#bg"/><use transform="matrix(0.05,0,0,0.05,9,0)" xlink:href="#aR"/><use transform="matrix(0.05,0,0,0.05,14,0)" xlink:href="#aU"/><use transform="matrix(0.05,0,0,0.05,24,0)" xlink:href="#aR"/><use transform="matrix(0.05,0,0,0.05,29,0)" xlink:href="#aY"/><use transform="matrix(0.05,0,0,0.05,32.95,0)" xlink:href="#cv"/></g><g id="as"><use transform="matrix(0.05,0,0,0.05,0,0)" xlink:href="#aY"/><use transform="matrix(0.05,0,0,0.05,3.95,0)" xlink:href="#aQ"/><use transform="matrix(0.05,0,0,0.05,13.949999999999998,0)" xlink:href="#bg"/><use transform="matrix(0.05,0,0,0.05,22.95,0)" xlink:href="#aR"/><use transform="matrix(0.05,0,0,0.05,27.950000000000003,0)" xlink:href="#aU"/><use transform="matrix(0.05,0,0,0.05,37.95,0)" xlink:href="#aQ"/><use transform="matrix(0.05,0,0,0.05,47.95,0)" xlink:href="#cv"/><use transform="matrix(0.05,0,0,0.05,56.95,0)" xlink:href="#aO"/></g><g id="at"><use transform="matrix(0.05,0,0,0.05,0,0)" xlink:href="#aS"/><use transform="matrix(0.05,0,0,0.05,10,0)" xlink:href="#bn"/></g><g id="au"><use transform="matrix(0.05,0,0,0.05,0,0)" xlink:href="#bg"/><use transform="matrix(0.05,0,0,0.05,9,0)" xlink:href="#aO"/><use transform="matrix(0.05,0,0,0.05,19,0)" xlink:href="#ba"/><use transform="matrix(0.05,0,0,0.05,22.95,0)" xlink:href="#bn"/></g><path fill="#333" d="M212-179c-10-28-35-45-73-45-59 0-87 40-87 99 0 60 29 101 89 101 43 0 62-24 78-52l27 14C228-24 195 4 139 4 59 4 22-46 18-125c-6-104 99-153 187-111 19 9 31 26 39 46" id="di"/><g id="av"><use transform="matrix(0.05,0,0,0.05,0,0)" xlink:href="#bn"/><use transform="matrix(0.05,0,0,0.05,5,0)" xlink:href="#aU"/><use transform="matrix(0.05,0,0,0.05,15,0)" xlink:href="#cD"/><use transform="matrix(0.05,0,0,0.05,24,0)" xlink:href="#aS"/><use transform="matrix(0.05,0,0,0.05,34,0)" xlink:href="#aV"/><use transform="matrix(0.05,0,0,0.05,39.95,0)" xlink:href="#aY"/><use transform="matrix(0.05,0,0,0.05,43.900000000000006,0)" xlink:href="#aR"/><use transform="matrix(0.05,0,0,0.05,48.900000000000006,0)" xlink:href="#aO"/><use transform="matrix(0.05,0,0,0.05,58.900000000000006,0)" xlink:href="#bg"/><use transform="matrix(0.05,0,0,0.05,67.9,0)" xlink:href="#di"/><use transform="matrix(0.05,0,0,0.05,80.85000000000001,0)" xlink:href="#aU"/><use transform="matrix(0.05,0,0,0.05,90.85000000000001,0)" xlink:href="#aV"/><use transform="matrix(0.05,0,0,0.05,96.80000000000001,0)" xlink:href="#aO"/><use transform="matrix(0.05,0,0,0.05,106.80000000000001,0)" xlink:href="#aR"/><use transform="matrix(0.05,0,0,0.05,111.80000000000001,0)" xlink:href="#aU"/><use transform="matrix(0.05,0,0,0.05,121.80000000000001,0)" xlink:href="#dd"/><use transform="matrix(0.05,0,0,0.05,130.8,0)" xlink:href="#aO"/><use transform="matrix(0.05,0,0,0.05,140.8,0)" xlink:href="#aV"/><use transform="matrix(0.05,0,0,0.05,146.75,0)" xlink:href="#bh"/></g><g id="aw"><use transform="matrix(0.05,0,0,0.05,0,0)" xlink:href="#cF"/><use transform="matrix(0.05,0,0,0.05,10.950000000000001,0)" xlink:href="#aU"/><use transform="matrix(0.05,0,0,0.05,20.950000000000003,0)" xlink:href="#cD"/><use transform="matrix(0.05,0,0,0.05,29.950000000000003,0)" xlink:href="#aS"/><use transform="matrix(0.05,0,0,0.05,39.95,0)" xlink:href="#aV"/><use transform="matrix(0.05,0,0,0.05,45.900000000000006,0)" xlink:href="#aY"/><use transform="matrix(0.05,0,0,0.05,49.85000000000001,0)" xlink:href="#aR"/><use transform="matrix(0.05,0,0,0.05,54.85,0)" xlink:href="#aO"/><use transform="matrix(0.05,0,0,0.05,64.85000000000001,0)" xlink:href="#bg"/><use transform="matrix(0.05,0,0,0.05,73.85000000000001,0)" xlink:href="#di"/><use transform="matrix(0.05,0,0,0.05,86.80000000000001,0)" xlink:href="#aU"/><use transform="matrix(0.05,0,0,0.05,96.80000000000001,0)" xlink:href="#aV"/><use transform="matrix(0.05,0,0,0.05,102.75,0)" xlink:href="#aO"/><use transform="matrix(0.05,0,0,0.05,112.75,0)" xlink:href="#aR"/><use transform="matrix(0.05,0,0,0.05,117.75,0)" xlink:href="#aU"/><use transform="matrix(0.05,0,0,0.05,127.75,0)" xlink:href="#dd"/><use transform="matrix(0.05,0,0,0.05,136.75,0)" xlink:href="#aO"/><use transform="matrix(0.05,0,0,0.05,146.75,0)" xlink:href="#aV"/></g><g id="ax"><use transform="matrix(0.05,0,0,0.05,0,0)" xlink:href="#bn"/><use transform="matrix(0.05,0,0,0.05,5,0)" xlink:href="#aU"/><use transform="matrix(0.05,0,0,0.05,15,0)" xlink:href="#cD"/><use transform="matrix(0.05,0,0,0.05,24,0)" xlink:href="#aS"/><use transform="matrix(0.05,0,0,0.05,34,0)" xlink:href="#aV"/><use transform="matrix(0.05,0,0,0.05,39.95,0)" xlink:href="#aY"/><use transform="matrix(0.05,0,0,0.05,43.900000000000006,0)" xlink:href="#aR"/><use transform="matrix(0.05,0,0,0.05,48.900000000000006,0)" xlink:href="#aO"/><use transform="matrix(0.05,0,0,0.05,58.900000000000006,0)" xlink:href="#bg"/><use transform="matrix(0.05,0,0,0.05,67.9,0)" xlink:href="#bh"/></g><g id="ay"><use transform="matrix(0.05,0,0,0.05,0,0)" xlink:href="#cF"/><use transform="matrix(0.05,0,0,0.05,10.950000000000001,0)" xlink:href="#aU"/><use transform="matrix(0.05,0,0,0.05,20.950000000000003,0)" xlink:href="#cD"/><use transform="matrix(0.05,0,0,0.05,29.950000000000003,0)" xlink:href="#aS"/><use transform="matrix(0.05,0,0,0.05,39.95,0)" xlink:href="#aV"/><use transform="matrix(0.05,0,0,0.05,45.900000000000006,0)" xlink:href="#aY"/><use transform="matrix(0.05,0,0,0.05,49.85000000000001,0)" xlink:href="#aR"/><use transform="matrix(0.05,0,0,0.05,54.85,0)" xlink:href="#aO"/><use transform="matrix(0.05,0,0,0.05,64.85000000000001,0)" xlink:href="#bg"/></g><g id="az"><use transform="matrix(0.05,0,0,0.05,0,0)" xlink:href="#cv"/><use transform="matrix(0.05,0,0,0.05,9,0)" xlink:href="#aS"/><use transform="matrix(0.05,0,0,0.05,19,0)" xlink:href="#aP"/><use transform="matrix(0.05,0,0,0.05,33.95,0)" xlink:href="#br"/><use transform="matrix(0.05,0,0,0.05,43.95,0)" xlink:href="#bf"/><use transform="matrix(0.05,0,0,0.05,53.95,0)" xlink:href="#aR"/><use transform="matrix(0.05,0,0,0.05,58.95,0)" xlink:href="#aO"/><use transform="matrix(0.05,0,0,0.05,68.95,0)" xlink:href="#bo"/></g><g id="aA"><use transform="matrix(0.05,0,0,0.05,0,0)" xlink:href="#aY"/><use transform="matrix(0.05,0,0,0.05,3.95,0)" xlink:href="#aQ"/><use transform="matrix(0.05,0,0,0.05,13.949999999999998,0)" xlink:href="#aY"/><use transform="matrix(0.05,0,0,0.05,17.9,0)" xlink:href="#aR"/><use transform="matrix(0.05,0,0,0.05,22.9,0)" xlink:href="#bk"/><use transform="matrix(0.05,0,0,0.05,28.849999999999994,0)" xlink:href="#bl"/></g><g id="aB"><use transform="matrix(0.05,0,0,0.05,0,0)" xlink:href="#br"/><use transform="matrix(0.05,0,0,0.05,10,0)" xlink:href="#aV"/><use transform="matrix(0.05,0,0,0.05,15.949999999999998,0)" xlink:href="#aY"/><use transform="matrix(0.05,0,0,0.05,19.9,0)" xlink:href="#cD"/><use transform="matrix(0.05,0,0,0.05,28.899999999999995,0)" xlink:href="#aU"/><use transform="matrix(0.05,0,0,0.05,38.9,0)" xlink:href="#aR"/><use transform="matrix(0.05,0,0,0.05,43.9,0)" xlink:href="#aO"/></g><g id="aC"><use transform="matrix(0.05,0,0,0.05,0,0)" xlink:href="#cF"/><use transform="matrix(0.05,0,0,0.05,10.950000000000001,0)" xlink:href="#aU"/><use transform="matrix(0.05,0,0,0.05,20.950000000000003,0)" xlink:href="#cD"/><use transform="matrix(0.05,0,0,0.05,29.950000000000003,0)" xlink:href="#aS"/><use transform="matrix(0.05,0,0,0.05,39.95,0)" xlink:href="#aV"/><use transform="matrix(0.05,0,0,0.05,45.900000000000006,0)" xlink:href="#aY"/><use transform="matrix(0.05,0,0,0.05,49.85000000000001,0)" xlink:href="#aR"/><use transform="matrix(0.05,0,0,0.05,54.85,0)" xlink:href="#aO"/><use transform="matrix(0.05,0,0,0.05,64.85000000000001,0)" xlink:href="#bg"/><use transform="matrix(0.05,0,0,0.05,73.85000000000001,0)" xlink:href="#di"/><use transform="matrix(0.05,0,0,0.05,86.80000000000001,0)" xlink:href="#aU"/><use transform="matrix(0.05,0,0,0.05,96.80000000000001,0)" xlink:href="#aV"/><use transform="matrix(0.05,0,0,0.05,102.75,0)" xlink:href="#aO"/><use transform="matrix(0.05,0,0,0.05,112.75,0)" xlink:href="#aR"/><use transform="matrix(0.05,0,0,0.05,117.75,0)" xlink:href="#aU"/><use transform="matrix(0.05,0,0,0.05,127.75,0)" xlink:href="#dd"/><use transform="matrix(0.05,0,0,0.05,136.75,0)" xlink:href="#aO"/><use transform="matrix(0.05,0,0,0.05,146.75,0)" xlink:href="#aV"/></g><g id="aD"><use transform="matrix(0.05,0,0,0.05,0,0)" xlink:href="#bo"/><use transform="matrix(0.05,0,0,0.05,10,0)" xlink:href="#aO"/><use transform="matrix(0.05,0,0,0.05,20,0)" xlink:href="#cv"/><use transform="matrix(0.05,0,0,0.05,29,0)" xlink:href="#aS"/><use transform="matrix(0.05,0,0,0.05,39,0)" xlink:href="#bo"/><use transform="matrix(0.05,0,0,0.05,49,0)" xlink:href="#aO"/><use transform="matrix(0.05,0,0,0.05,59,0)" xlink:href="#aV"/></g><g id="aE"><use transform="matrix(0.05,0,0,0.05,0,0)" xlink:href="#aO"/><use transform="matrix(0.05,0,0,0.05,10,0)" xlink:href="#aQ"/><use transform="matrix(0.05,0,0,0.05,20,0)" xlink:href="#cv"/><use transform="matrix(0.05,0,0,0.05,29,0)" xlink:href="#aS"/><use transform="matrix(0.05,0,0,0.05,39,0)" xlink:href="#bo"/><use transform="matrix(0.05,0,0,0.05,49,0)" xlink:href="#aO"/><use transform="matrix(0.05,0,0,0.05,59,0)" xlink:href="#aV"/></g><g id="aF"><use transform="matrix(0.05,0,0,0.05,0,0)" xlink:href="#bf"/><use transform="matrix(0.05,0,0,0.05,10,0)" xlink:href="#bg"/><use transform="matrix(0.05,0,0,0.05,19,0)" xlink:href="#aO"/><use transform="matrix(0.05,0,0,0.05,29,0)" xlink:href="#aV"/><use transform="matrix(0.05,0,0,0.05,34.95,0)" xlink:href="#cE"/><use transform="matrix(0.05,0,0,0.05,47.900000000000006,0)" xlink:href="#aO"/><use transform="matrix(0.05,0,0,0.05,57.900000000000006,0)" xlink:href="#bn"/><use transform="matrix(0.05,0,0,0.05,62.900000000000006,0)" xlink:href="#aU"/><use transform="matrix(0.05,0,0,0.05,72.9,0)" xlink:href="#bf"/><use transform="matrix(0.05,0,0,0.05,82.9,0)" xlink:href="#ba"/><use transform="matrix(0.05,0,0,0.05,86.85000000000001,0)" xlink:href="#aR"/><use transform="matrix(0.05,0,0,0.05,91.85000000000001,0)" xlink:href="#bg"/></g><g id="aG"><use transform="matrix(0.05,0,0,0.05,0,0)" xlink:href="#dd"/><use transform="matrix(0.05,0,0,0.05,9,0)" xlink:href="#aO"/><use transform="matrix(0.05,0,0,0.05,19,0)" xlink:href="#bp"/></g><path fill="#333" d="M30 0v-248h187v28H63v79h144v27H63v87h162V0H30" id="dj"/><g id="aH"><use transform="matrix(0.05,0,0,0.05,0,0)" xlink:href="#dj"/><use transform="matrix(0.05,0,0,0.05,12,0)" xlink:href="#aV"/><use transform="matrix(0.05,0,0,0.05,17.95,0)" xlink:href="#aV"/><use transform="matrix(0.05,0,0,0.05,23.9,0)" xlink:href="#aS"/><use transform="matrix(0.05,0,0,0.05,33.9,0)" xlink:href="#aV"/></g><g id="aI"><use transform="matrix(0.05,0,0,0.05,0,0)" xlink:href="#bg"/><use transform="matrix(0.05,0,0,0.05,9,0)" xlink:href="#aU"/><use transform="matrix(0.05,0,0,0.05,19,0)" xlink:href="#cD"/><use transform="matrix(0.05,0,0,0.05,28,0)" xlink:href="#aO"/><use transform="matrix(0.05,0,0,0.05,38,0)" xlink:href="#bk"/><use transform="matrix(0.05,0,0,0.05,43.95,0)" xlink:href="#bq"/><use transform="matrix(0.05,0,0,0.05,48.95,0)" xlink:href="#bq"/><use transform="matrix(0.05,0,0,0.05,53.95,0)" xlink:href="#bq"/><use transform="matrix(0.05,0,0,0.05,58.95,0)" xlink:href="#bl"/></g><g id="aJ"><use transform="matrix(0.05,0,0,0.05,0,0)" xlink:href="#ba"/><use transform="matrix(0.05,0,0,0.05,3.95,0)" xlink:href="#aS"/><use transform="matrix(0.05,0,0,0.05,13.949999999999998,0)" xlink:href="#aU"/><use transform="matrix(0.05,0,0,0.05,23.95,0)" xlink:href="#bo"/><use transform="matrix(0.05,0,0,0.05,33.95,0)" xlink:href="#bk"/><use transform="matrix(0.05,0,0,0.05,39.900000000000006,0)" xlink:href="#bl"/></g><g id="aK"><use transform="matrix(0.04320987654320988,0,0,0.04320987654320988,0,0)" xlink:href="#di"/><use transform="matrix(0.04320987654320988,0,0,0.04320987654320988,11.19135802469136,0)" xlink:href="#aV"/><use transform="matrix(0.04320987654320988,0,0,0.04320987654320988,16.333333333333336,0)" xlink:href="#aO"/><use transform="matrix(0.04320987654320988,0,0,0.04320987654320988,24.97530864197531,0)" xlink:href="#aU"/><use transform="matrix(0.04320987654320988,0,0,0.04320987654320988,33.617283950617285,0)" xlink:href="#aR"/><use transform="matrix(0.04320987654320988,0,0,0.04320987654320988,37.93827160493827,0)" xlink:href="#aO"/><use transform="matrix(0.04320987654320988,0,0,0.04320987654320988,46.58024691358024,0)" xlink:href="#bg"/></g><path fill="#333" d="M234-2c-28 10-62 0-77-18C117 19 8 12 13-65c3-43 29-61 60-76-25-40-17-114 47-108 35 3 59 15 59 50 0 44-40 53-71 69 14 26 32 50 51 72 14-21 24-43 30-72l26 8c-9 33-21 57-38 82 13 13 33 22 57 15v23zM97-151c25-10 52-18 56-48-1-18-13-29-33-29-42 0-39 50-23 77zM42-66c-3 51 71 58 98 28-20-24-41-51-56-80-23 10-40 24-42 52" id="dk"/><use transform="matrix(0.04320987654320988,0,0,0.04320987654320988,0,0)" xlink:href="#dk" id="aL"/><g id="aM"><use transform="matrix(0.04320987654320988,0,0,0.04320987654320988,0,0)" xlink:href="#bf"/><use transform="matrix(0.04320987654320988,0,0,0.04320987654320988,8.641975308641976,0)" xlink:href="#bg"/><use transform="matrix(0.04320987654320988,0,0,0.04320987654320988,16.419753086419753,0)" xlink:href="#aO"/><use transform="matrix(0.04320987654320988,0,0,0.04320987654320988,25.061728395061728,0)" xlink:href="#bg"/></g></defs></g></svg>